<svg aria-hidden="true" style="position: absolute; width: 0; height: 0; overflow: hidden;" version="1.1" xmlns="http://www.w3.org/2000/svg" xmlns:xlink="http://www.w3.org/1999/xlink">
<defs>
<symbol id="icon-services-5-5" viewBox="0 0 192 14">
<path fill="#fa0" style="fill: var(--color1, #fa0)" d="M5.299 15.836c0.061-0.138 0.028-0.341 0-0.492-0.021-0.127-0.076-0.239-0.155-0.329l0.001 0.001c-0.080-0.093-0.198-0.137-0.31-0.164-0.088-0.023-0.221-0.024-0.31 0s-0.085 0.097-0.155 0.164c-0.174 0.158-0.398 0.17-0.619 0.164h-2.168c-0.222 0.005-0.446-0.006-0.619-0.164-0.070-0.067-0.067-0.14-0.155-0.164s-0.221-0.023-0.31 0c-0.112 0.027-0.23 0.071-0.31 0.164s-0.133 0.2-0.155 0.328c-0.028 0.151-0.061 0.354 0 0.492 0.022 0.050 0.155 0.108 0.155 0.164s-0.133 0.114-0.155 0.164c-0.060 0.138-0.028 0.341 0 0.492 0.022 0.129 0.075 0.235 0.155 0.328s0.198 0.137 0.31 0.164c0.088 0.023 0.221 0.024 0.31 0s0.085-0.097 0.155-0.164c0.173-0.159 0.397-0.169 0.619-0.164h2.168c0.222-0.005 0.446 0.006 0.619 0.164 0.070 0.067 0.067 0.14 0.155 0.164s0.221 0.023 0.31 0c0.112-0.027 0.23-0.070 0.31-0.164s0.133-0.2 0.155-0.328c0.027-0.151 0.061-0.354 0-0.492-0.022-0.050-0.155-0.108-0.155-0.164s0.133-0.114 0.155-0.164zM11.966 15.836c0.061-0.138 0.028-0.341 0-0.492-0.021-0.127-0.076-0.239-0.155-0.329l0.001 0.001c-0.080-0.093-0.198-0.137-0.31-0.164-0.088-0.023-0.222-0.024-0.31 0s-0.085 0.097-0.155 0.164c-0.174 0.158-0.398 0.17-0.619 0.164h-2.168c-0.222 0.005-0.446-0.006-0.619-0.164-0.070-0.067-0.067-0.14-0.155-0.164s-0.221-0.023-0.31 0c-0.112 0.027-0.23 0.071-0.31 0.164s-0.133 0.2-0.155 0.328c-0.027 0.151-0.061 0.354 0 0.492 0.022 0.050 0.155 0.108 0.155 0.164s-0.133 0.114-0.155 0.164c-0.061 0.138-0.027 0.341 0 0.492 0.022 0.129 0.075 0.235 0.155 0.328s0.198 0.137 0.31 0.164c0.088 0.023 0.221 0.024 0.31 0s0.085-0.097 0.155-0.164c0.173-0.159 0.397-0.169 0.619-0.164h2.168c0.222-0.005 0.446 0.006 0.619 0.164 0.070 0.067 0.067 0.14 0.155 0.164s0.221 0.023 0.31 0c0.112-0.027 0.23-0.070 0.31-0.164s0.133-0.2 0.155-0.328c0.027-0.151 0.060-0.354 0-0.492-0.022-0.050-0.155-0.108-0.155-0.164s0.133-0.114 0.155-0.164zM18.632 15.836c0.061-0.138 0.028-0.341 0-0.492-0.021-0.127-0.076-0.239-0.155-0.329l0.001 0.001c-0.080-0.093-0.198-0.137-0.31-0.164-0.088-0.023-0.221-0.024-0.31 0s-0.085 0.097-0.155 0.164c-0.174 0.158-0.398 0.17-0.619 0.164h-2.168c-0.222 0.005-0.445-0.006-0.619-0.164-0.070-0.067-0.067-0.14-0.155-0.164s-0.221-0.023-0.31 0c-0.112 0.027-0.23 0.071-0.31 0.164s-0.133 0.2-0.155 0.328c-0.027 0.151-0.061 0.354 0 0.492 0.022 0.050 0.155 0.108 0.155 0.164s-0.133 0.114-0.155 0.164c-0.060 0.138-0.027 0.341 0 0.492 0.022 0.129 0.075 0.235 0.155 0.328s0.198 0.137 0.31 0.164c0.088 0.023 0.222 0.024 0.31 0s0.085-0.097 0.155-0.164c0.174-0.159 0.398-0.169 0.619-0.164h2.168c0.222-0.005 0.446 0.006 0.619 0.164 0.070 0.067 0.067 0.14 0.155 0.164s0.221 0.023 0.31 0c0.111-0.027 0.23-0.070 0.31-0.164s0.133-0.2 0.155-0.328c0.028-0.151 0.061-0.354 0-0.492-0.022-0.050-0.155-0.108-0.155-0.164s0.133-0.114 0.155-0.164zM25.299 15.836c0.061-0.138 0.028-0.341 0-0.492-0.021-0.127-0.076-0.239-0.155-0.329l0.001 0.001c-0.080-0.093-0.198-0.137-0.31-0.164-0.088-0.023-0.221-0.024-0.31 0s-0.085 0.097-0.155 0.164c-0.174 0.158-0.398 0.17-0.619 0.164h-2.168c-0.221 0.005-0.445-0.006-0.619-0.164-0.070-0.067-0.067-0.14-0.155-0.164s-0.221-0.023-0.31 0c-0.111 0.027-0.23 0.071-0.31 0.164-0.079 0.089-0.134 0.201-0.154 0.324l-0.001 0.004c-0.028 0.151-0.061 0.354 0 0.492 0.022 0.050 0.155 0.108 0.155 0.164s-0.133 0.114-0.155 0.164c-0.061 0.138-0.028 0.341 0 0.492 0.021 0.129 0.075 0.235 0.155 0.328s0.198 0.137 0.31 0.164c0.088 0.023 0.221 0.024 0.31 0s0.085-0.097 0.155-0.164c0.174-0.159 0.398-0.169 0.619-0.164h2.168c0.222-0.005 0.446 0.006 0.619 0.164 0.070 0.067 0.067 0.14 0.155 0.164s0.221 0.023 0.31 0c0.111-0.027 0.23-0.070 0.31-0.164s0.133-0.2 0.155-0.328c0.028-0.151 0.061-0.354 0-0.492-0.022-0.050-0.155-0.108-0.155-0.164s0.133-0.114 0.155-0.164zM31.966 15.836c0.061-0.138 0.028-0.341 0-0.492-0.021-0.127-0.076-0.239-0.155-0.329l0.001 0.001c-0.080-0.093-0.198-0.137-0.31-0.164-0.088-0.023-0.221-0.024-0.31 0s-0.085 0.097-0.155 0.164c-0.174 0.158-0.398 0.17-0.619 0.164h-2.168c-0.221 0.005-0.445-0.006-0.619-0.164-0.070-0.067-0.067-0.14-0.155-0.164s-0.221-0.023-0.31 0c-0.111 0.027-0.23 0.071-0.31 0.164-0.079 0.089-0.134 0.201-0.154 0.324l-0.001 0.004c-0.028 0.151-0.061 0.354 0 0.492 0.022 0.050 0.155 0.108 0.155 0.164s-0.133 0.114-0.155 0.164c-0.061 0.138-0.028 0.341 0 0.492 0.021 0.129 0.075 0.235 0.155 0.328s0.198 0.137 0.31 0.164c0.088 0.023 0.221 0.024 0.31 0s0.085-0.097 0.155-0.164c0.174-0.159 0.398-0.169 0.619-0.164h2.168c0.222-0.005 0.446 0.006 0.619 0.164 0.070 0.067 0.067 0.14 0.155 0.164s0.221 0.023 0.31 0c0.111-0.027 0.23-0.070 0.31-0.164s0.133-0.2 0.155-0.328c0.028-0.151 0.061-0.354 0-0.492-0.022-0.050-0.155-0.108-0.155-0.164s0.133-0.114 0.155-0.164z"></path>
</symbol>
<symbol id="icon-check-active-button" viewBox="0 0 32 32">
<path fill="#839aa9" style="fill: var(--color2, #839aa9)" d="M1.092 15.68c4.46 4.828 8.784 9.172 12.94 14.664 4.52-8.988 9.144-18.008 16.776-27.772l-2.060-0.944c-6.44 6.836-11.448 13.304-15.8 20.992-3.024-2.728-7.912-6.584-10.896-8.56l-0.96 1.62z"></path>
</symbol>
<symbol id="icon-people-contact" viewBox="0 0 32 32">
<path fill="#ff9f0e" style="fill: var(--color3, #ff9f0e)" d="M11.384 9.714c0-1.125 0.446-2.204 1.24-3 0.766-0.767 1.825-1.242 2.995-1.242s2.229 0.475 2.995 1.242l0 0c0.767 0.768 1.241 1.829 1.241 3s-0.474 2.232-1.241 3l0-0c-0.766 0.767-1.825 1.242-2.995 1.242s-2.229-0.475-2.995-1.242l-0-0c-0.766-0.768-1.24-1.828-1.24-2.999 0-0 0-0.001 0-0.001v0zM15.619 3.048c-1.838 0-3.502 0.746-4.706 1.952l-0 0c-1.205 1.207-1.95 2.873-1.95 4.714s0.745 3.507 1.95 4.714l-0-0c1.204 1.206 2.868 1.951 4.706 1.951s3.502-0.746 4.706-1.951l0-0c1.205-1.207 1.95-2.873 1.95-4.714s-0.745-3.507-1.95-4.714l0 0c-1.204-1.206-2.868-1.952-4.706-1.952h-0zM5.333 22.44c0-0.964 0.383-1.889 1.064-2.57 0.656-0.658 1.564-1.066 2.567-1.066h13.31c0.963 0 1.887 0.383 2.567 1.065 0.657 0.659 1.064 1.568 1.064 2.572 0 0 0 0 0 0v-0 0.273c-0.003 0.114-0.010 0.226-0.024 0.339-0.025 0.21-0.070 0.494-0.158 0.831-0.25 0.937-0.666 1.755-1.22 2.46l0.011-0.015c-1.415 1.82-4.079 3.384-8.895 3.384s-7.478-1.563-8.895-3.384c-0.543-0.69-0.96-1.508-1.199-2.398l-0.011-0.047c-0.086-0.316-0.149-0.688-0.176-1.069l-0.001-0.019c-0.001-0.023-0.002-0.052-0.002-0.080v-0.029l-0.002-0.010v-0.236zM7.753 22.656v0.015c0.017 0.204 0.052 0.406 0.103 0.604 0.11 0.421 0.33 0.991 0.776 1.564 0.853 1.096 2.728 2.45 6.987 2.45s6.135-1.354 6.987-2.448c0.347-0.442 0.614-0.966 0.767-1.536l0.007-0.030c0.053-0.198 0.087-0.4 0.105-0.604v-0.229c-0.001-0.669-0.542-1.211-1.21-1.213h-13.31c0 0 0 0 0 0-0.668 0-1.21 0.542-1.21 1.21 0 0.001 0 0.002 0 0.003v-0 0.215z"></path>
</symbol>
<symbol id="icon-services-4-5" viewBox="0 0 192 14">
<path fill="#fa0" style="fill: var(--color1, #fa0)" d="M5.299 15.836c0.061-0.138 0.028-0.341 0-0.492-0.021-0.127-0.076-0.239-0.155-0.329l0.001 0.001c-0.080-0.093-0.198-0.137-0.31-0.164-0.088-0.023-0.221-0.024-0.31 0s-0.085 0.097-0.155 0.164c-0.174 0.158-0.398 0.17-0.619 0.164h-2.168c-0.222 0.005-0.446-0.006-0.619-0.164-0.070-0.067-0.067-0.14-0.155-0.164s-0.221-0.023-0.31 0c-0.112 0.027-0.23 0.071-0.31 0.164s-0.133 0.2-0.155 0.328c-0.028 0.151-0.061 0.354 0 0.492 0.022 0.050 0.155 0.108 0.155 0.164s-0.133 0.114-0.155 0.164c-0.060 0.138-0.028 0.341 0 0.492 0.022 0.129 0.075 0.235 0.155 0.328s0.198 0.137 0.31 0.164c0.088 0.023 0.221 0.024 0.31 0s0.085-0.097 0.155-0.164c0.173-0.159 0.397-0.169 0.619-0.164h2.168c0.222-0.005 0.446 0.006 0.619 0.164 0.070 0.067 0.067 0.14 0.155 0.164s0.221 0.023 0.31 0c0.112-0.027 0.23-0.070 0.31-0.164s0.133-0.2 0.155-0.328c0.027-0.151 0.061-0.354 0-0.492-0.022-0.050-0.155-0.108-0.155-0.164s0.133-0.114 0.155-0.164zM11.966 15.836c0.061-0.138 0.028-0.341 0-0.492-0.021-0.127-0.076-0.239-0.155-0.329l0.001 0.001c-0.080-0.093-0.198-0.137-0.31-0.164-0.088-0.023-0.222-0.024-0.31 0s-0.085 0.097-0.155 0.164c-0.174 0.158-0.398 0.17-0.619 0.164h-2.168c-0.222 0.005-0.446-0.006-0.619-0.164-0.070-0.067-0.067-0.14-0.155-0.164s-0.221-0.023-0.31 0c-0.112 0.027-0.23 0.071-0.31 0.164s-0.133 0.2-0.155 0.328c-0.027 0.151-0.061 0.354 0 0.492 0.022 0.050 0.155 0.108 0.155 0.164s-0.133 0.114-0.155 0.164c-0.061 0.138-0.027 0.341 0 0.492 0.022 0.129 0.075 0.235 0.155 0.328s0.198 0.137 0.31 0.164c0.088 0.023 0.221 0.024 0.31 0s0.085-0.097 0.155-0.164c0.173-0.159 0.397-0.169 0.619-0.164h2.168c0.222-0.005 0.446 0.006 0.619 0.164 0.070 0.067 0.067 0.14 0.155 0.164s0.221 0.023 0.31 0c0.112-0.027 0.23-0.070 0.31-0.164s0.133-0.2 0.155-0.328c0.027-0.151 0.060-0.354 0-0.492-0.022-0.050-0.155-0.108-0.155-0.164s0.133-0.114 0.155-0.164zM18.632 15.836c0.061-0.138 0.028-0.341 0-0.492-0.021-0.127-0.076-0.239-0.155-0.329l0.001 0.001c-0.080-0.093-0.198-0.137-0.31-0.164-0.088-0.023-0.221-0.024-0.31 0s-0.085 0.097-0.155 0.164c-0.174 0.158-0.398 0.17-0.619 0.164h-2.168c-0.222 0.005-0.445-0.006-0.619-0.164-0.070-0.067-0.067-0.14-0.155-0.164s-0.221-0.023-0.31 0c-0.112 0.027-0.23 0.071-0.31 0.164s-0.133 0.2-0.155 0.328c-0.027 0.151-0.061 0.354 0 0.492 0.022 0.050 0.155 0.108 0.155 0.164s-0.133 0.114-0.155 0.164c-0.060 0.138-0.027 0.341 0 0.492 0.022 0.129 0.075 0.235 0.155 0.328s0.198 0.137 0.31 0.164c0.088 0.023 0.222 0.024 0.31 0s0.085-0.097 0.155-0.164c0.174-0.159 0.398-0.169 0.619-0.164h2.168c0.222-0.005 0.446 0.006 0.619 0.164 0.070 0.067 0.067 0.14 0.155 0.164s0.221 0.023 0.31 0c0.111-0.027 0.23-0.070 0.31-0.164s0.133-0.2 0.155-0.328c0.028-0.151 0.061-0.354 0-0.492-0.022-0.050-0.155-0.108-0.155-0.164s0.133-0.114 0.155-0.164zM25.299 15.836c0.061-0.138 0.028-0.341 0-0.492-0.021-0.127-0.076-0.239-0.155-0.329l0.001 0.001c-0.080-0.093-0.198-0.137-0.31-0.164-0.088-0.023-0.221-0.024-0.31 0s-0.085 0.097-0.155 0.164c-0.174 0.158-0.398 0.17-0.619 0.164h-2.168c-0.221 0.005-0.445-0.006-0.619-0.164-0.070-0.067-0.067-0.14-0.155-0.164s-0.221-0.023-0.31 0c-0.111 0.027-0.23 0.071-0.31 0.164-0.079 0.089-0.134 0.201-0.154 0.324l-0.001 0.004c-0.028 0.151-0.061 0.354 0 0.492 0.022 0.050 0.155 0.108 0.155 0.164s-0.133 0.114-0.155 0.164c-0.061 0.138-0.028 0.341 0 0.492 0.021 0.129 0.075 0.235 0.155 0.328s0.198 0.137 0.31 0.164c0.088 0.023 0.221 0.024 0.31 0s0.085-0.097 0.155-0.164c0.174-0.159 0.398-0.169 0.619-0.164h2.168c0.222-0.005 0.446 0.006 0.619 0.164 0.070 0.067 0.067 0.14 0.155 0.164s0.221 0.023 0.31 0c0.111-0.027 0.23-0.070 0.31-0.164s0.133-0.2 0.155-0.328c0.028-0.151 0.061-0.354 0-0.492-0.022-0.050-0.155-0.108-0.155-0.164s0.133-0.114 0.155-0.164z"></path>
<path fill="#f1f3ff" style="fill: var(--color4, #f1f3ff)" d="M31.966 15.836c0.061-0.138 0.028-0.341 0-0.492-0.021-0.127-0.076-0.239-0.155-0.329l0.001 0.001c-0.080-0.093-0.198-0.137-0.31-0.164-0.088-0.023-0.221-0.024-0.31 0s-0.085 0.097-0.155 0.164c-0.174 0.158-0.398 0.17-0.619 0.164h-2.168c-0.221 0.005-0.445-0.006-0.619-0.164-0.070-0.067-0.067-0.14-0.155-0.164s-0.221-0.023-0.31 0c-0.111 0.027-0.23 0.071-0.31 0.164-0.079 0.089-0.134 0.201-0.154 0.324l-0.001 0.004c-0.028 0.151-0.061 0.354 0 0.492 0.022 0.050 0.155 0.108 0.155 0.164s-0.133 0.114-0.155 0.164c-0.061 0.138-0.028 0.341 0 0.492 0.021 0.129 0.075 0.235 0.155 0.328s0.198 0.137 0.31 0.164c0.088 0.023 0.221 0.024 0.31 0s0.085-0.097 0.155-0.164c0.174-0.159 0.398-0.169 0.619-0.164h2.168c0.222-0.005 0.446 0.006 0.619 0.164 0.070 0.067 0.067 0.14 0.155 0.164s0.221 0.023 0.31 0c0.111-0.027 0.23-0.070 0.31-0.164s0.133-0.2 0.155-0.328c0.028-0.151 0.061-0.354 0-0.492-0.022-0.050-0.155-0.108-0.155-0.164s0.133-0.114 0.155-0.164z"></path>
</symbol>
<symbol id="icon-card-shop" viewBox="0 0 32 32">
<path fill="#ff9f0e" style="fill: var(--color3, #ff9f0e)" d="M1.858 12.878h28.293v-2.082h-28.293v2.082zM29.532 12.26v0.913h2.082v-0.913h-2.082zM26.173 29.528h-20.339v2.082h20.34v-2.082zM2.475 13.175v-0.914h-2.081v0.913h2.080zM6.421 29.891c-2.488-4.87-3.946-10.623-3.946-16.717v0h-2.081c0 6.127 1.425 12.169 4.166 17.649l1.861-0.933zM5.834 29.529c0.25 0 0.477 0.142 0.587 0.362l-1.861 0.933c0.24 0.47 0.72 0.786 1.274 0.786h0v-2.082zM25.586 29.891c0.11-0.216 0.331-0.362 0.586-0.362 0 0 0 0 0.001 0h-0v2.081c0.541 0 1.033-0.304 1.274-0.787l-1.861-0.933zM29.532 13.175c-0.001 6.093-1.459 11.846-4.044 16.929l0.098-0.213 1.861 0.933c2.627-5.142 4.167-11.216 4.167-17.649v-0h-2.082zM30.15 12.878c-0.341 0-0.618-0.276-0.618-0.617v-0h2.082c0-0 0-0.001 0-0.001 0-0.808-0.655-1.463-1.463-1.463-0 0-0.001 0-0.001 0h0v2.081zM1.858 10.797c-0.808 0-1.463 0.655-1.463 1.463v0h2.080c0 0.341-0.277 0.618-0.618 0.618v0-2.082zM8.571 12.373l6.244-10.406-1.787-1.070-6.244 10.406 1.787 1.069zM17.192 1.966l6.244 10.406 1.786-1.069-6.244-10.407-1.786 1.069zM10.8 21.203h10.406v-2.082h-10.406v2.082z"></path>
</symbol>
<symbol id="icon-paw-purple" viewBox="0 0 32 32">
<path fill="#d9a6ff" style="fill: var(--color5, #d9a6ff)" d="M15.876 16.010c-2.585 0.573-2.818 3.013-4.86 5.619-2.93 3.812-1.883 6.472 0.314 6.646s3.613-2.507 5.962-2.815c2.293-0.451 4.453 1.577 6.446 0.581 2.022-0.925 2.231-3.857-1.671-6.416-2.617-1.672-3.594-3.943-6.191-3.615zM8.691 15.092c1.694 1.855 2.243 4.274 1.238 5.398-1.074 1.153-3.307 0.582-5.001-1.273s-2.243-4.274-1.238-5.398c1.074-1.153 3.307-0.582 5.001 1.273zM21.661 12.96c-1.103 2.253-0.836 4.617 0.523 5.333s3.379-0.466 4.483-2.719c1.103-2.251 0.836-4.617-0.523-5.333-1.43-0.686-3.451 0.496-4.483 2.718zM13.934 9.537c0.899 2.498 0.301 5.011-1.236 5.563s-3.508-1.065-4.407-3.564-0.301-5.011 1.235-5.563c1.537-0.552 3.509 1.065 4.407 3.564zM15.419 8.981c-0.060 2.521 1.2 4.493 2.739 4.497 1.608-0.025 2.926-2.023 3.014-4.474 0.060-2.521-1.201-4.493-2.739-4.497-1.566-0.073-2.953 1.953-3.013 4.474z"></path>
</symbol>
<symbol id="icon-paw-pink" viewBox="0 0 32 32">
<path fill="#ff6e9f" style="fill: var(--color6, #ff6e9f)" d="M15.796 15.168c-1.317-2.135-3.52-1.602-6.443-2.615-4.258-1.456-6.204 0.317-5.609 2.356 0.542 1.995 3.349 2.484 4.361 4.447 1.146 1.905 0.102 4.441 1.627 5.982 1.471 1.497 4.036 0.843 4.991-3.476 0.619-2.893 2.309-4.457 1.073-6.694zM14.395 9.020c-0.857 2.083-2.701 3.164-4.065 2.524s-1.767-2.935-0.856-4.973c0.857-2.083 2.647-3.209 4.065-2.524s1.714 2.89 0.857 4.973zM20.37 19.808c-2.259-0.395-4.148 0.527-4.271 2.018s1.629 2.967 3.875 3.268c2.259 0.396 4.149-0.527 4.271-2.017s-1.629-2.967-3.875-3.268zM21.125 11.763c-1.787 1.437-4.103 1.586-5.202 0.323s-0.488-3.524 1.299-4.961c1.787-1.437 4.103-1.586 5.202-0.323s0.487 3.523-1.299 4.96zM21.84 12.772c-2.249 0.675-3.54 2.407-2.938 3.911s2.865 2.167 5.114 1.492 3.54-2.407 2.938-3.911c-0.603-1.503-2.865-2.167-5.114-1.492z"></path>
</symbol>
<symbol id="icon-paw-yelow" viewBox="0 0 32 32">
<path fill="#fcb62a" style="fill: var(--color7, #fcb62a)" d="M15.079 15.43c1.627 2.224 3.977 1.167 7.237 1.852 4.76 0.916 6.631-1.411 5.756-3.672-0.847-2.169-3.823-2.232-5.278-4.206s-0.676-5.069-2.453-6.533-4.449-0.203-4.929 4.83c-0.292 3.448-1.872 5.478-0.332 7.73zM17.607 21.977c0.688-2.436 2.548-4.139 4.038-3.609s2.213 2.917 1.465 5.473c-0.688 2.436-2.548 4.139-4.038 3.609s-2.126-2.945-1.465-5.473zM9.799 11.105c2.461 0.016 4.392-1.406 4.352-3.101s-2.059-3.058-4.492-2.983c-2.461-0.017-4.392 1.406-4.352 3.1 0.013 1.604 2.031 2.967 4.492 2.983zM9.991 20.149c1.842-1.982 4.363-2.689 5.603-1.495s0.769 3.833-1.073 5.815c-1.842 1.982-4.363 2.689-5.604 1.495-1.151-1.223-0.741-3.742 1.073-5.815zM9.269 18.846c2.361-1.249 3.743-3.469 2.958-5.094-0.757-1.535-3.287-1.812-5.736-0.533-2.36 1.249-3.743 3.468-2.958 5.093 0.758 1.535 3.376 1.783 5.736 0.533z"></path>
</symbol>
<symbol id="icon-paw-gray" viewBox="0 0 32 32">
<path fill="#839aa9" style="fill: var(--color2, #839aa9)" d="M14.94 15.81c-2.486 0.476-2.725 2.602-4.686 4.866-2.837 3.304-1.807 5.606 0.34 5.738 2.087 0.166 3.509-2.165 5.725-2.426 2.207-0.399 4.271 1.349 6.261 0.497 1.929-0.82 2.176-3.307-1.618-5.553-2.55-1.487-3.466-3.493-6.022-3.121zM8.986 15.096c1.719 1.476 2.151 3.497 1.087 4.503s-3.402 0.588-5.060-0.92c-1.719-1.476-2.211-3.465-1.086-4.503s3.341-0.555 5.060 0.92zM20.995 13.248c-1.196 1.865-1.002 3.801 0.371 4.357s3.415-0.538 4.515-2.42c1.195-1.865 1.002-3.802-0.372-4.357s-3.414 0.538-4.515 2.42zM13.967 9.961c0.808 2.133 0.172 4.306-1.438 4.877-1.611 0.569-3.623-0.771-4.43-2.905s-0.172-4.306 1.438-4.876c1.611-0.57 3.623 0.771 4.431 2.904zM14.505 9.525c-0.098 2.201 1.115 3.908 2.729 3.874s2.979-1.805 3.077-4.006c0.098-2.201-1.115-3.908-2.729-3.874s-2.979 1.805-3.077 4.006z"></path>
</symbol>
<symbol id="icon-play-talk" viewBox="0 0 32 32">
<path fill="#fff" style="fill: var(--color8, #fff)" d="M22.809 15.271c-0.019 0.197-0.139 0.412-0.414 0.631l-8.11 6.435c-0.577 0.458-1.947 0.565-1.947-0.513v-11.905c0-0.975 1.47-1.215 2.059-0.818l8.109 5.472c0.309 0.209 0.377 0.459 0.303 0.7zM32 18.654c-0.857 20.541-35.471 16.285-31.715-5.338 1.576-9.073 9.11-13.845 17.389-13.269 9.317 0.647 14.157 9.123 14.327 18.471 0 0.023-0.015 0.043-0.018 0.065 0.003 0.026 0.020 0.042 0.019 0.071zM30.263 18.919c-0.14-6.617-2.487-13.763-8.541-16.607-8.025-3.769-17.479 0.676-19.518 9.838-1.823 8.194 2.232 15.459 9.653 18.087 7.912 2.802 17.974-1.607 18.407-11.317z"></path>
</symbol>
<symbol id="icon-arrow-hero" viewBox="0 0 32 32">
<path fill="#fcb62a" style="fill: var(--color7, #fcb62a)" d="M6.343 23.082c0.995-6.532 6.422-11.846 11.95-11.838 0.032 0.167 0.105 0.377 0.053 0.539-0.891 2.748 0.297 4.881 2.223 6.77 1.482 1.492 3.194 2.709 5.24 3.328 0.586 0.16 1.171 0.319 1.807 0.358 2.328 0.183 3.552-1.060 3.436-3.334-0.076-1.53-0.764-2.808-1.713-3.979-1.619-2.036-3.737-3.566-6.224-4.625-1.221-0.455-1.783-0.684-2.342-0.919l0.64 0.238c2.413-2.614 5.681-3.197 8.807-4.242-0.551-0.033-1.097-0.149-1.653-0.101-2.876 0.442-5.566 1.308-7.725 3.236-0.629 0.539-1.204 0.916-2.136 0.859-3.604-0.179-6.622 1.202-9.153 3.644-1.833 1.757-3.304 3.877-4.298 6.246l-0.046 0.123c-0.249 0.603-0.499 1.206-0.941 2.167-1.161-1.884-2.166-3.511-3.173-5.139-0.129 0.033-0.262 0.108-0.392 0.141-0.062 0.326-0.214 0.729-0.105 1.024 0.508 1.432 1.016 2.864 1.611 4.26 0.56 1.27 1.208 2.505 1.768 3.776 0.563 1.229 1.223 1.558 2.088 0.622 1.501-1.598 2.84-3.329 4.222-5.058 0.184-0.235 0.042-0.697 0.022-1.070-0.428 0.056-0.977-0.018-1.247 0.213-0.945 0.849-1.723 1.749-2.72 2.76zM20.036 11.268c4.109 0.952 7.213 3.037 9.071 6.735 0.376 0.806 0.654 1.812-0.146 2.381-0.534 0.379-1.555 0.399-2.271 0.273-2.729-0.579-4.757-2.186-6.413-4.307-1.141-1.512-1.427-3.095-0.242-5.083z"></path>
</symbol>
<symbol id="icon-Grooming" viewBox="0 0 32 32">
<path d="M21.1 9.363c-0.084-0.371-0.315-0.65-0.633-0.765-0.022-0.008-0.046-0.009-0.069-0.016 0.228-1.036 0.87-4.801-1.233-7.004-1.22-1.277-3.122-1.782-5.651-1.503-0.044-0.018-0.095-0.030-0.149-0.032l-0.001-0c-1.986-0.064-3.507 0.484-4.504 1.626-1.953 2.237-1.246 6.013-1.042 6.908-0.030 0.008-0.061 0.010-0.090 0.020-0.318 0.115-0.549 0.394-0.634 0.765-0.076 0.331-0.033 0.713 0.118 1.075 0.278 0.665 0.841 1.090 1.381 1.090 0.058 0 0.115-0.005 0.172-0.015 0.459 1.357 1.223 2.486 2.487 3.179v1.391h-0.656v3.925h7.002v-3.925h-0.657v-1.383c1.266-0.692 2.031-1.824 2.489-3.187 0.056 0.010 0.113 0.014 0.17 0.014 0.54 0 1.103-0.425 1.382-1.089 0.152-0.363 0.193-0.745 0.118-1.075zM7.814 10.219c-0.105-0.251-0.137-0.518-0.088-0.732 0.039-0.169 0.125-0.289 0.236-0.33 0.028-0.010 0.061-0.016 0.095-0.016 0.001 0 0.002 0 0.003 0h-0c0.063 0 0.133 0.018 0.205 0.051 0.074 0.599 0.179 1.18 0.326 1.732-0.247-0.005-0.593-0.269-0.776-0.705zM17.312 16.684c-0.643 0.629-1.84 1.052-3.215 1.052s-2.572-0.424-3.215-1.052h0.693c0.179 0 0.323-0.135 0.323-0.301v-1.392c0.63 0.241 1.362 0.392 2.215 0.432 0.839-0.040 1.56-0.188 2.182-0.425v1.385c0 0.166 0.145 0.301 0.323 0.301h0.693zM19.296 8.874c-0.028 0.266-0.053 0.453-0.080 0.64l0.011-0.092c-0.075 0.51-0.165 0.944-0.278 1.37l0.019-0.086c-0.039 0.153-0.084 0.299-0.13 0.444-0.396 1.263-1.020 2.247-1.983 2.876-0.143 0.093-0.297 0.174-0.454 0.251-0.633 0.312-1.384 0.503-2.289 0.546-0.902-0.043-1.653-0.231-2.287-0.537-0.19-0.090-0.348-0.179-0.5-0.277l0.017 0.010c-0.966-0.63-1.591-1.612-1.988-2.872-0.030-0.082-0.074-0.23-0.115-0.38l-0.015-0.064c-0.093-0.339-0.184-0.772-0.25-1.213l-0.008-0.068c-0.088-0.594-0.157-1.32-0.19-2.055l-0.002-0.049c0.076-0.441 0.187-0.807 0.319-1.107 0.426-0.072 0.806-0.189 1.164-0.347l-0.031 0.012c0.080 0.102 0.215 0.167 0.353 0.158 0.072-0.003 1.024-0.054 2.030-0.421-0.005 0.042-0.002 0.086 0.009 0.129 0.043 0.168 0.203 0.288 0.389 0.292 0.087 0.003 1.797 0.022 2.853-1.101 0.407 0.908 1.322 2.395 3.187 3.328l0.278 0.357c-0.009 0.087-0.020 0.17-0.030 0.255zM20.379 10.219c-0.181 0.435-0.527 0.699-0.773 0.705 0.145-0.552 0.25-1.132 0.324-1.731 0.072-0.033 0.142-0.051 0.205-0.051 0.035 0 0.068 0.005 0.097 0.016 0.153 0.055 0.213 0.23 0.236 0.33 0.049 0.214 0.016 0.481-0.089 0.732zM13.364 11.002v-0.843c0-0.166 0.145-0.301 0.323-0.301s0.323 0.135 0.323 0.301v0.775h0.497c0.179 0 0.323 0.135 0.323 0.301s-0.145 0.301-0.323 0.301h-0.57c-0.316 0-0.573-0.239-0.573-0.533zM11.819 9.069c0 0.323-0.282 0.585-0.629 0.585s-0.629-0.262-0.629-0.585 0.282-0.586 0.629-0.586c0.347 0 0.629 0.262 0.629 0.586zM17.633 9.069c0 0.323-0.281 0.585-0.629 0.585s-0.629-0.262-0.629-0.585 0.282-0.586 0.629-0.586 0.629 0.262 0.629 0.586zM15.679 12.854c0 0.485-0.817 0.658-1.582 0.658s-1.582-0.173-1.582-0.658c0-0.166 0.145-0.301 0.323-0.301 0.144 0 0.266 0.088 0.308 0.209 0.108 0.059 0.448 0.149 0.951 0.149s0.843-0.089 0.951-0.149c0.042-0.121 0.164-0.209 0.308-0.209 0.178 0 0.323 0.135 0.323 0.301zM31.891 22.231c-0.096-0.151-0.237-0.267-0.404-0.329l-0.006-0.002c0.007-0.036 0.010-0.078 0.010-0.121 0-0.139-0.039-0.268-0.107-0.378l0.002 0.003c-0.096-0.151-0.237-0.267-0.404-0.329l-0.006-0.002c0.027-0.165 0-0.339-0.095-0.496s-0.243-0.267-0.409-0.33c0.007-0.037 0.010-0.079 0.010-0.122 0-0.138-0.039-0.268-0.107-0.378l0.002 0.003c-0.113-0.179-0.289-0.31-0.496-0.362l-0.006-0.001c-0.066-0.018-0.142-0.028-0.22-0.028-0.15 0-0.291 0.037-0.415 0.104l0.005-0.002-0.327 0.173c-0.067-0.1-0.148-0.183-0.243-0.25l-0.003-0.002v-0.329h1.831c0.179 0 0.323-0.135 0.323-0.301s-0.145-0.301-0.323-0.301h-1.831v-0.3h1.831c0.179 0 0.323-0.135 0.323-0.301s-0.145-0.3-0.323-0.3h-1.831v-0.301h1.831c0.179 0 0.323-0.135 0.323-0.301s-0.145-0.301-0.323-0.301h-1.831v-0.301h1.831c0.179 0 0.323-0.135 0.323-0.301s-0.145-0.301-0.323-0.301h-1.831l0.002-0.301h1.829c0.179 0 0.323-0.135 0.323-0.301s-0.145-0.301-0.323-0.301h-1.829c-0.363 0-0.648 0.308-0.648 0.702v1.448c-0.028-0.342-0.164-0.685-0.404-0.98-0.59-0.728-1.602-0.947-2.253-0.489-0.339 0.239-0.512 0.615-0.519 1.023-0.424-0.105-0.861-0.054-1.2 0.184-0.327 0.23-0.519 0.603-0.527 1.023-0.006 0.389 0.141 0.789 0.416 1.127s0.648 0.579 1.052 0.68c0.135 0.033 0.27 0.050 0.402 0.050 0.294 0 0.573-0.082 0.799-0.241 0.021-0.015 0.037-0.035 0.057-0.051l1.014 1.131-0.366 0.734c-0.028 0.045-0.053 0.091-0.076 0.139l-2.131 1.124-3.636-5.555c-0.093-0.136-0.196-0.254-0.313-0.358l-0.002-0.002c-0.197-0.234-0.472-0.396-0.785-0.448l-0.008-0.001c-0.196-0.064-0.421-0.1-0.655-0.1-0.115 0-0.228 0.009-0.338 0.026l0.012-0.002v4.029c0.079 0.023 0.152 0.056 0.216 0.1 0.119 0.083 0.206 0.2 0.241 0.338l0.082 0.318 1.508 5.879v-2.518l1.211 1.851c0.385 0.588 1.058 0.914 1.75 0.914 0.343 0 0.69-0.080 1.008-0.248l3.88-2.048c0.016-0.008 0.028-0.020 0.044-0.029 0.030 0.002 0.061 0.006 0.091 0.006 0.252 0 0.508-0.059 0.743-0.183l0.729-0.385 0.044 0.050c0.147 0.164 0.407 0.192 0.591 0.063l0.133-0.094 0.141-0.099 0.133-0.094c0.134-0.094 0.185-0.254 0.148-0.409l0.317-0.168c0.187-0.097 0.327-0.262 0.389-0.461l0.001-0.006c0.019-0.062 0.030-0.133 0.030-0.206 0-0.141-0.040-0.272-0.11-0.383l0.002 0.003zM30.011 20.843l0.059-0.031c0.026-0.014 0.057-0.022 0.091-0.022 0.017 0 0.034 0.002 0.050 0.006l-0.001-0c0.047 0.012 0.086 0.040 0.111 0.079l0 0.001c0.050 0.082 0.019 0.187-0.069 0.233l-0.059 0.031-0.787 0.416c-0.026 0.014-0.058 0.022-0.091 0.022-0.017 0-0.034-0.002-0.050-0.006l0.001 0c-0.047-0.012-0.086-0.041-0.11-0.080l-0-0.001c-0.015-0.024-0.024-0.054-0.024-0.085 0-0.065 0.037-0.121 0.091-0.148l0.001-0 0.787-0.416zM28.973 20.375l0.008-0.016c0.006-0.012 0.008-0.025 0.013-0.037 0.006-0.014 0.010-0.028 0.015-0.043l0.555-0.294c0.026-0.014 0.058-0.022 0.091-0.022 0.017 0 0.034 0.002 0.050 0.006l-0.001-0c0.047 0.012 0.086 0.040 0.111 0.079l0 0.001c0.014 0.023 0.022 0.051 0.022 0.081 0 0.029-0.008 0.056-0.021 0.079l0-0.001c-0.016 0.032-0.040 0.057-0.070 0.074l-0.001 0-0.846 0.447c-0.025 0.013-0.055 0.020-0.086 0.020-0.010 0-0.020-0.001-0.030-0.002l0.001 0 0.187-0.373zM25.273 18.735c-0.156 0.109-0.355 0.082-0.46 0.056-0.216-0.054-0.43-0.195-0.587-0.389s-0.245-0.423-0.241-0.632c0.002-0.101 0.028-0.286 0.184-0.396 0.078-0.055 0.175-0.081 0.279-0.081 0.253 0 0.555 0.152 0.767 0.413 0.299 0.369 0.325 0.839 0.058 1.027zM25.946 17.194c-0.299-0.369-0.325-0.839-0.057-1.027 0.078-0.055 0.174-0.081 0.279-0.081 0.253 0 0.555 0.153 0.767 0.414 0.157 0.193 0.245 0.423 0.242 0.631-0.002 0.101-0.028 0.286-0.184 0.396s-0.355 0.082-0.459 0.056c-0.217-0.054-0.43-0.196-0.587-0.389zM26.778 19.61c-0.147-0.182-0.109-0.44 0.087-0.577s0.473-0.101 0.62 0.081c0.052 0.063 0.073 0.137 0.080 0.21-0.121 0.073-0.223 0.172-0.287 0.299l-0.070 0.141c-0.159 0.026-0.327-0.025-0.43-0.153zM29.319 23.741l-0.296 0.156c-0.413 0.219-0.942 0.083-1.177-0.301l-0.799-1.307c-0.071-0.112-0.113-0.249-0.113-0.396 0-0.076 0.011-0.15 0.033-0.22l-0.001 0.005 0.003-0.007 0.106-0.213 0.79-1.583c0.023-0.045 0.085-0.075 0.162-0.082 0.057-0.005 0.121 0.001 0.187 0.030s0.113 0.071 0.145 0.114c0.007 0.010 0.016 0.019 0.021 0.029 0.027 0.050 0.034 0.1 0.015 0.138l-0.793 1.584c-0.013 0.025-0.015 0.051-0.020 0.078-0.023 0.13 0.042 0.263 0.177 0.322 0.044 0.019 0.090 0.028 0.136 0.028 0.046 0 0.090-0.012 0.132-0.029v1.428c0 0.166 0.145 0.301 0.323 0.301s0.323-0.135 0.323-0.301v-1.042l0.979 1.092-0.333 0.176zM29.91 22.382c-0.026 0.014-0.057 0.022-0.091 0.022-0.017 0-0.034-0.002-0.050-0.006l0.001 0c-0.047-0.012-0.086-0.041-0.11-0.080l-0-0.001c-0.015-0.024-0.024-0.054-0.024-0.085 0-0.065 0.037-0.121 0.091-0.148l0.001-0 0.846-0.447c0.026-0.014 0.057-0.022 0.090-0.022 0.017 0 0.034 0.002 0.050 0.006l-0.001-0c0.047 0.012 0.087 0.041 0.111 0.080 0.050 0.082 0.019 0.187-0.068 0.233l-0.059 0.031-0.787 0.416zM31.347 22.658c-0.014 0.045-0.045 0.081-0.085 0.102l-0.001 0h-0l-0.152 0.080-0.693 0.367c-0.025 0.013-0.055 0.021-0.086 0.021-0.013 0-0.025-0.001-0.037-0.004l0.001 0c-0.054-0.007-0.1-0.038-0.129-0.081l-0-0.001c-0.015-0.024-0.023-0.054-0.023-0.085 0-0.065 0.037-0.121 0.092-0.148l0.001-0 0.846-0.447c0.026-0.014 0.057-0.022 0.090-0.022h0c0.005 0 0.010 0.001 0.015 0.002 0.061 0.003 0.114 0.036 0.145 0.085l0 0.001c0.024 0.040 0.030 0.086 0.017 0.13zM20.551 31.362l-0.18-3.894c-0.001-0.011-0.002-0.022-0.005-0.032l0 0.001-1.761-6.865c-0.008-0.027-0.021-0.051-0.038-0.070l0 0c-0.048-0.057-0.131-0.093-0.225-0.093h-8.492c-0.093 0-0.177 0.037-0.224 0.093-0.017 0.019-0.031 0.043-0.038 0.068l-0 0.001-1.546 6.030-0.24-0.126c-0.051-0.026-0.102-0.047-0.153-0.068l1.52-5.928c0.039-0.141 0.125-0.259 0.24-0.337l0.002-0.001c0.063-0.044 0.137-0.078 0.216-0.1v-4.014c-0.754-0.227-1.614-0.035-2.17 0.554l-6.948 7.366c-0.386 0.409-0.565 0.951-0.493 1.49s0.389 1.025 0.87 1.333l3.986 2.556c0.124 0.080 0.256 0.14 0.391 0.191 0.163 0.174 0.354 0.32 0.565 0.431l0.012 0.006 1.815 0.941c0.003 0.002 0.007 0.002 0.011 0.004l-0.022 0.464-0.020 0.431c-0 0.001-0 0.002-0 0.003 0 0.049 0.021 0.094 0.055 0.125l0 0c0.054 0.049 0.125 0.079 0.204 0.079 0.003 0 0.005-0 0.008-0h12.413c0.002 0 0.005 0 0.008 0 0.079 0 0.15-0.030 0.204-0.079l-0 0c0.034-0.031 0.056-0.075 0.056-0.125 0-0.001 0-0.002-0-0.004v0l-0.020-0.432zM5.103 24.849l2.477-2.626v4.153c-0.065-0.026-0.146-0.051-0.229-0.073l-0.015-0.003c-0.048-0.037-0.089-0.078-0.141-0.111l-2.091-1.341zM9.953 28.41c-0.021 0.032-0.056 0.053-0.097 0.053-0.019 0-0.038-0.005-0.054-0.013l0.001 0-1.469-0.762c-0.082-0.042-0.177-0.039-0.263-0.008-0.080 0.028-0.146 0.080-0.19 0.148l-0.001 0.001c-0.026 0.042-0.041 0.093-0.041 0.147 0 0.029 0.004 0.058 0.013 0.084l-0.001-0.002c0.026 0.079 0.080 0.143 0.152 0.18l0.002 0.001 0.001 0.001 1.759 0.912c0.025 0.013 0.043 0.035 0.051 0.061l0 0.001c0.003 0.009 0.004 0.018 0.004 0.029 0 0.018-0.005 0.035-0.014 0.049l0-0c-0.015 0.024-0.038 0.041-0.065 0.048l-0.001 0c-0.009 0.003-0.020 0.004-0.030 0.004-0.019 0-0.038-0.005-0.054-0.013l0.001 0-1.76-0.913c-0.033-0.017-0.072-0.027-0.113-0.029l-0.001-0c-0.006-0-0.012-0-0.019-0-0.068 0-0.132 0.018-0.186 0.051l0.002-0.001c-0.006 0.003-0.012 0.006-0.018 0.009-0.049 0.028-0.089 0.066-0.119 0.111l-0.001 0.001c-0.026 0.042-0.041 0.093-0.041 0.147 0 0.029 0.004 0.057 0.013 0.084l-0.001-0.002c0.020 0.066 0.067 0.12 0.126 0.159 0.010 0.007 0.017 0.017 0.028 0.022l0.013 0.007 0.015 0.008 1.441 0.747c0.025 0.013 0.044 0.035 0.052 0.061l0 0.001c0.003 0.009 0.004 0.018 0.004 0.028 0 0.018-0.005 0.035-0.014 0.049l0-0c-0.021 0.032-0.057 0.052-0.097 0.052-0.019 0-0.037-0.005-0.053-0.013l0.001 0-1.634-0.846c-0.102-0.053-0.259-0.033-0.359 0.025-0.091 0.052-0.152 0.148-0.152 0.259 0 0.001 0 0.003 0 0.004v-0c0.003 0.058 0.022 0.111 0.054 0.155l-0.001-0.001c0.028 0.041 0.065 0.077 0.112 0.101l1.125 0.583c0.034 0.017 0.047 0.046 0.052 0.061 0.003 0.008 0.004 0.018 0.004 0.028 0 0.018-0.005 0.035-0.014 0.050l0-0c-0.021 0.032-0.056 0.053-0.097 0.053-0.019 0-0.037-0.005-0.053-0.013l0.001 0-1.815-0.941c-0.296-0.153-0.528-0.397-0.663-0.693l-0.004-0.009c-0.175-0.402-0.155-0.841 0.052-1.175 0.253-0.407 0.74-0.707 1.282-0.707 0.22 0 0.448 0.051 0.674 0.162 0.007 0.003 0.013 0.005 0.020 0.008l0.065 0.034 2.33 1.222c0.025 0.013 0.043 0.035 0.052 0.061l0 0.001c0.003 0.009 0.005 0.019 0.005 0.029 0 0.018-0.005 0.035-0.014 0.049l0-0zM17.943 26.919c-0.010 0.528-0.557 0.759-0.837 0.351l-0.281-0.41c-0.081 0.259-0.195 0.485-0.34 0.687l0.005-0.007c0.001 0.032 0.005 0.064 0.005 0.097 0 1.363-1.073 2.468-2.398 2.468s-2.398-1.105-2.398-2.468c0-0.033 0.003-0.064 0.005-0.097-0.14-0.195-0.255-0.42-0.331-0.662l-0.005-0.017-0.281 0.41c-0.279 0.408-0.827 0.177-0.837-0.351-0.004-0.276-0.016-0.539-0.034-0.799l0.003 0.046c-0.061-0.882 1.229-1.295 1.81-1.436 0.517-0.346 1.251-0.501 2.068-0.501s1.551 0.156 2.068 0.501c0.581 0.141 1.871 0.555 1.81 1.436-0.016 0.214-0.027 0.476-0.032 0.741l-0 0.013zM13.114 28.749c0-0.371 0.44-0.672 0.982-0.672s0.983 0.301 0.983 0.672c0 0.371-0.44 0.672-0.983 0.672s-0.982-0.301-0.982-0.672z"></path>
</symbol>
<symbol id="icon-Nutrition" viewBox="0 0 32 32">
<path d="M22.415 19.13c-0.748-0.147-1.489 0.341-1.802 1.188-0.055 0.146-0.099 0.317-0.124 0.494l-0.001 0.013c0.78-0.468 1.449-1.023 2.023-1.666l0.007-0.008-0.103-0.020zM23.109 10.927c1.403-1.12 1.801-3.423 0.888-5.144s-2.791-2.208-4.194-1.088c-1.403 1.12-1.801 3.423-0.888 5.144s2.79 2.208 4.193 1.088zM28.673 11.865c-1.311-1.991-3.092-2.014-4.075-1.202s-0.911 2.874-0.090 4.259c0.037 0.076 0.077 0.156 0.116 0.234 0.283-1.053 0.323-1.817 0.323-1.828 0.029-0.893 0.62-1.591 1.345-1.591 0.017 0 0.034 0 0.050 0.001 0.743 0.033 1.324 0.801 1.297 1.712v0.003l-0.001 0.015c-0.022 0.51-0.164 2.343-1.067 4.522-0.083 0.2-0.179 0.419-0.291 0.651 0.129 0.278 0.311 0.726 0.48 1.18l0.057 0.176-1.149-0.227c-0.777 1.277-1.967 2.726-3.737 3.862l5.138 5.216c0.314 0.319 0.695 0.475 1.073 0.475 0.484 0 0.965-0.255 1.298-0.749 0.593-0.879 0.493-2.181-0.223-2.909l-1.236-1.255 0.4 0.079c0.124 0.024 0.246 0.030 0.367 0.022 0.29 0.017 0.631-0.107 1.051-0.287 1.166-0.498 2.488-1.377 2.144-4.055-0.693-3.598-1.482-5.555-3.272-8.306z"></path>
<path d="M26.332 17.841c0.97-2.342 1.033-4.28 1.039-4.402 0.022-0.73-0.442-1.343-1.037-1.37s-1.093 0.541-1.117 1.269c-0.002 0.084-0.092 1.678-0.879 3.474-0.796 1.799-2.226 3.82-5.122 5.003-0.565 0.229-0.873 0.976-0.686 1.67 0.149 0.555 0.571 0.908 1.023 0.908 0.112 0 0.226-0.021 0.338-0.067 3.541-1.421 5.48-4.147 6.441-6.486zM12.134 24.129c0.49 0.114 1.079 0.302 1.235 0.505 0.42 0.543 0.625 1.665 1.169 1.744 0.38 0.055 0.514 0.045 0.985-0.328 0.465-0.369 0.023-1.805-0.088-2.357-0.157-0.783 0.218-1.643 0.224-1.696 0.005-0.043 0.328-0.875 1.263-0.559 0.326 0.111 0.135-0.629-0.376-0.999-0.608-0.439-1.047-0.234-1.492 0.193-0.858-0.805-2.202-0.648-2.966-0.298-0.108 0.52-0.169 1.117-0.169 1.729 0 0.005 0 0.011 0 0.016v-0.001c0.001 0.726 0.079 1.434 0.227 2.116l-0.012-0.066zM14.312 22.392c0.2-0.167 0.472-0.103 0.608 0.141s0.085 0.579-0.115 0.746c-0.2 0.167-0.473 0.104-0.609-0.141s-0.085-0.579 0.116-0.746zM11.538 20.317c-0.199 0.003-0.388-0.004-0.569-0.021-0.051-0.017-0.111-0.028-0.172-0.028-0.009 0-0.018 0-0.026 0.001l0.001-0c-0.004 0-0.008 0.002-0.012 0.002-2.749-0.383-3.497-2.933-6.708-0.287-0.97-0.35-2.126-1.101-3.002-2.705-0.177-0.323-0.533-0.407-0.796-0.19-0.263 0.217-0.333 0.653-0.155 0.976 0.833 1.51 1.863 2.394 2.829 2.913-0.011 0.029-0.023 0.063-0.035 0.097-0.248 0.457-0.442 1.059-0.568 1.861-0.018 0.117-0.804 6.273 0.431 6.273s1.574-4.657 2.264-5.253c0.097 0.011 1.929 2.365 3.494 2.069 0.367-0.070 0.863-0.347 1.277-0.643l0.677 3.324c0.077 0.373 0.348 0.626 0.653 0.626 0.033 0 0.067-0.003 0.101-0.009 0.344-0.063 0.591-0.434 0.573-0.86l-0.176-4.139c-0.15-0.675-0.237-1.45-0.238-2.245v-0.001c0-0.549 0.044-1.144 0.158-1.763zM17.55 28.446h-0.17l-0.347-1.319h-3.889l-0.347 1.319h-0.17c-0.137 0-0.248 0.136-0.248 0.305s0.111 0.304 0.248 0.304h4.923c0.137 0 0.248-0.136 0.248-0.304s-0.111-0.305-0.248-0.305z"></path>
</symbol>
<symbol id="icon-Training" viewBox="0 0 32 32">
<path d="M6.231 25.595l1.153-3.878-0.419-1.143c-0.891-0.149-1.626-0.597-2.098-1.193l-1.573 5.22-3.093 5.221c-0.42 0.696-0.157 1.591 0.577 1.989s1.678 0.149 2.098-0.547l3.251-5.37c0.052-0.099 0.105-0.199 0.105-0.298zM1.090 14.764c0.483 0.253 1.127 0.051 1.395-0.456l2.413-4.658 0.429-0.303 0.215-1.266c0.107-0.658 0.429-1.266 0.858-1.772l-2.896 1.772c-0.161 0.101-0.268 0.253-0.376 0.405l-2.521 4.911c-0.268 0.506-0.053 1.114 0.483 1.367zM10.338 5.408c1.632 0 2.954-1.211 2.954-2.704s-1.323-2.704-2.954-2.704-2.954 1.211-2.954 2.704c0 1.493 1.322 2.704 2.954 2.704zM28.969 25.591s0.052 0.050 0.052 0.099c0.418-0.249 0.575-0.797 0.575-0.797 1.569 0.448 1.883-0.947 1.883-0.947 0.209-0.398-0.837-0.797-0.837-0.797-0.052-0.996-1.255-1.295-1.255-1.295-0.575-0.498-0.418 0-0.418 0-0.575-0.050-0.942 0.15-0.942 0.15-0.942-0.847-1.517 0.448-1.517 0.448-0.157 0-0.262 0.050-0.419 0.050 0.942 1.195 1.935 2.241 2.877 3.088zM30.429 28.782c-0.272-0.252-2.228-1.362-2.228-1.362 0.435-0.202 0.489-1.059 0.489-1.362-1.032-0.908-2.119-2.068-3.205-3.379-0.543 0.101-4.129 1.513-7.606 0.051-1.304-0.555-2.445 0.252-2.445 0.252-0.978 1.059-0.543 2.774-0.543 2.774l1.358-1.362c0.706-0.504 0.978-0.403 1.141-0.151 0.109 0.202 0.054 0.454-0.109 0.656-1.304 1.261-0.869 2.572-0.869 2.572l-1.847 1.513c-0.706 0.706 0.109 1.261 0.109 1.261 0.163-0.555 1.467-1.412 1.467-1.412-0.054 0.656 0.272 0.807 0.272 0.807 0.923-0.252 0.706-1.109 0.706-1.109 1.467-0.050 1.63-0.656 1.63-0.656 1.467 0.252 2.173-0.655 2.173-0.655 0.38 0.655 3.694 1.362 3.694 1.362 0.217 0.101 1.467 2.421 1.467 2.421 0.272 0.050 0.543 0.403 0.543 0.403 0.598 0.353 1.847-0.050 1.847-0.050-0.109-0.454-0.761-0.454-0.761-0.454-1.467 0-1.249-2.269-1.249-2.269 0.054-0.303 1.195 0.252 1.195 0.252l2.499 0.858c1.249 0.605 1.793-0.101 1.793-0.101 0.38-0.555-1.521-0.857-1.521-0.857zM18.215 11.014c1.241 2.511 3.885 7.484 7.283 11.522 0.162-0.049 0.378-0.049 0.593-0.099-0.053-0.049-0.108-0.098-0.162-0.197-3.399-3.988-6.042-8.961-7.229-11.423-0.216 0.148-0.432 0.197-0.486 0.197z"></path>
<path d="M18.48 10.433c0.543-0.199 0.869-0.748 0.652-1.247s-0.815-0.798-1.357-0.599l-2.932 0.948c-3.421-2.943-3.583-3.443-4.941-3.642-1.738-0.25-3.367 0.898-3.638 2.495l-1.303 8.382c-0.271 1.597 0.978 3.093 2.715 3.343h0.163l1.412 3.892-2.878 3.892c-0.489 0.649-0.326 1.597 0.434 2.046 0.706 0.449 1.738 0.299 2.226-0.399l3.367-4.49c0.271-0.399 0.38-0.848 0.217-1.297l-1.792-4.939c0.272-0.349 0.489-0.798 0.543-1.247l1.194-7.434 1.357 1.197c0.187 0.167 0.435 0.269 0.707 0.269 0.136 0 0.266-0.026 0.386-0.072l-0.007 0.002 3.475-1.098z"></path>
</symbol>
<symbol id="icon-Bathing" viewBox="0 0 32 32">
<path d="M22.772 14.919c-0.266-0.621-0.695-1.13-1.234-1.485l-0.012-0.008c-0.399-0.257-1.946-0.463-1.995 0.978 0 0-0.649 0.103-0.599 0.567 0 0-0.399 1.39 1.496 1.235 0 0 0.349 2.625 0.648 3.192 0 0 0.15 0.515 0.2 1.030h0.798l0.050-1.030s0.449 0.309 0.798 1.030h1.147c-0.050-0.412-0.1-0.772-0.2-1.030 0 0 1.696 0 2.295-0.772 0 0 0.499 0.978 1.097 1.029v0.824h0.798c0.050-0.154 0.050-0.309 0.1-0.566 0 0 0.299 0.155 0.449 0.567h0.698c-0.1-0.361-0.998-3.707-1.297-3.964 0 0 0.449-0.051 0.598 0.515 0 0 0.249 1.184 0.748 1.133 0 0 0.349-0.772-0.249-1.75 0 0-0.25-0.721-1.547-0.618l-3.741-0.103c-0.455-0.093-0.83-0.378-1.044-0.764l-0.004-0.008zM18.233 10.955c0.299-0.412 0.249-1.030-0.15-1.39-0.399-0.309-0.997-0.257-1.347 0.154-0.948 1.236-2.643 1.441-3.841 0.927l-0.648 1.853c2.045 0.823 4.539 0.412 5.986-1.544zM9.753 7.712c1.35 0 2.444-1.129 2.444-2.522s-1.094-2.523-2.444-2.523-2.444 1.129-2.444 2.523c0 1.393 1.094 2.522 2.444 2.522z"></path>
<path d="M11.2 20.993l-2.095-0.875 1.247-3.655c-2.793-1.596-3.791-4.118-3.841-4.273-0.299-0.772 0.050-1.596 0.798-1.905s1.547 0.052 1.846 0.824c0.050 0.103 0.648 1.442 2.195 2.523l0.948-2.677c0.1-0.309 0.050-0.618-0.149-0.875-1.796-2.059-3.891-2.831-6.185-2.111-0.648 0.206-1.097 0.721-1.247 1.39l-1.995 10.708v0.309l0.1 4.891-1.098-0.257c-0.748-0.154-1.546 0.36-1.696 1.133s0.349 1.596 1.097 1.75l2.843 0.618c0.449 0.103 0.848 0 1.197-0.309s0.549-0.721 0.499-1.184l-0.1-5.148 3.642 1.493v4.478c0 0.824 0.648 1.493 1.447 1.493s1.446-0.669 1.446-1.493v-5.457c0.050-0.618-0.349-1.133-0.898-1.39z"></path>
<path d="M15.041 15.382c-4.739-0.36-6.235-3.913-6.285-4.067-0.2-0.515-0.748-0.721-1.247-0.515s-0.698 0.772-0.499 1.287c0.1 0.206 1.995 4.839 7.931 5.303 0.549 0.051 0.998-0.36 0.998-0.927s-0.349-1.030-0.898-1.081zM23.57 8.69c-0.997 0.206-1.746 1.132-1.746 2.213h4.439c0-1.184-0.848-2.111-1.945-2.265-1.497-1.699-3.891-1.030-5.786 0.669 0.1 0.103 0.199 0.257 0.299 0.412 1.347-1.287 3.192-2.162 4.738-1.029zM31.152 20.891h-14.017c-0.399 0-0.748 0.36-0.748 0.772s0.349 0.772 0.748 0.772h0.15v1.287c0 2.008 1.596 3.655 3.541 3.655h6.734c1.945 0 3.541-1.647 3.541-3.655v-1.287h0.15c0.399 0 0.748-0.36 0.748-0.772-0.1-0.463-0.449-0.772-0.848-0.772zM22.223 11.933l0.050-0.463c0-0.155-0.050-0.258-0.2-0.258s-0.249 0.051-0.249 0.206l-0.050 0.463c0 0.154 0.050 0.257 0.2 0.257 0.1 0 0.2-0.103 0.249-0.206zM21.625 12.551l-0.050 0.463c0 0.154 0.050 0.257 0.2 0.257s0.249-0.052 0.249-0.206l0.050-0.463c0-0.154-0.050-0.257-0.2-0.257-0.1 0-0.199 0.103-0.249 0.206zM23.321 12.139c0.15 0 0.249-0.103 0.249-0.257v-0.515c0-0.154-0.1-0.257-0.249-0.257s-0.249 0.103-0.249 0.257v0.515c0 0.103 0.15 0.257 0.249 0.257zM23.021 13.066c0 0.154 0.1 0.257 0.25 0.257s0.249-0.103 0.249-0.257v-0.515c0-0.154-0.1-0.257-0.249-0.257s-0.25 0.103-0.25 0.257v0.515zM24.668 11.161c-0.15 0-0.25 0.103-0.25 0.257v0.515c0 0.155 0.1 0.258 0.25 0.258s0.249-0.103 0.249-0.258v-0.515c0-0.154-0.1-0.257-0.249-0.257zM24.518 12.602v0.515c0 0.155 0.1 0.258 0.249 0.258s0.249-0.103 0.249-0.258v-0.515c0-0.154-0.1-0.257-0.249-0.257-0.2 0-0.299 0.103-0.249 0.257zM25.964 11.161c-0.15 0-0.199 0.154-0.199 0.257l0.050 0.463c0 0.103 0.1 0.206 0.249 0.206s0.249-0.155 0.249-0.309l-0.1-0.412c0-0.154-0.15-0.257-0.249-0.206zM25.915 12.654l0.050 0.463c0 0.103 0.149 0.206 0.249 0.206 0.15 0 0.249-0.154 0.199-0.257v-0.515c0-0.155-0.15-0.206-0.249-0.206-0.15 0.051-0.249 0.154-0.249 0.309z"></path>
</symbol>
<symbol id="icon-Arrow-button" viewBox="0 0 32 32">
<path fill="#fff" style="fill: var(--color8, #fff)" d="M0.552 17.331c-0.341-0.341-0.551-0.811-0.551-1.331s0.211-0.99 0.551-1.331l11.979-11.979c0.344-0.366 0.832-0.594 1.372-0.594 1.040 0 1.882 0.843 1.882 1.882 0 0.541-0.228 1.029-0.594 1.372l-0.001 0.001-10.647 10.648 10.648 10.648c0.355 0.343 0.575 0.823 0.575 1.354 0 1.040-0.843 1.882-1.882 1.882-0.531 0-1.011-0.22-1.353-0.574l-0.001-0.001-11.979-11.979zM32 17.882h-30.118v-3.765h30.118v3.765z"></path>
</symbol>
<symbol id="icon-Arrow-services" viewBox="0 0 32 32">
<path fill="#ff9f0e" style="fill: var(--color3, #ff9f0e)" d="M31.771 16.552c0.141-0.141 0.229-0.336 0.229-0.552s-0.087-0.411-0.229-0.552l-4.967-4.967c-0.142-0.147-0.341-0.238-0.561-0.238-0.431 0-0.78 0.349-0.78 0.78 0 0.22 0.091 0.419 0.238 0.561l4.415 4.415-4.415 4.415c-0.136 0.14-0.219 0.331-0.219 0.542 0 0.431 0.349 0.78 0.78 0.78 0.211 0 0.402-0.084 0.542-0.219l4.967-4.967zM0 16.78h31.22v-1.561h-31.22v1.561z"></path>
</symbol>
<symbol id="icon-facebook" viewBox="0 0 32 32">
<path fill="#ff9f0e" style="fill: var(--color1, #ff9f0e)" d="M29 16c0-2.571-0.762-5.085-2.191-7.222s-3.459-3.804-5.834-4.788c-2.375-0.984-4.989-1.241-7.511-0.74s-4.838 1.74-6.656 3.558c-1.818 1.818-3.056 4.134-3.558 6.656s-0.244 5.136 0.74 7.511c0.984 2.375 2.65 4.406 4.788 5.834s4.651 2.191 7.222 2.191c3.447-0.003 6.752-1.374 9.189-3.811s3.808-5.742 3.811-9.189zM17 26.95v-7.95h3c0.265 0 0.52-0.105 0.707-0.293s0.293-0.442 0.293-0.707c0-0.265-0.105-0.52-0.293-0.707s-0.442-0.293-0.707-0.293h-3v-3c0-0.53 0.211-1.039 0.586-1.414s0.884-0.586 1.414-0.586h2c0.265 0 0.52-0.105 0.707-0.293s0.293-0.442 0.293-0.707c0-0.265-0.105-0.52-0.293-0.707s-0.442-0.293-0.707-0.293h-2c-1.060 0.003-2.075 0.426-2.825 1.175s-1.172 1.765-1.175 2.825v3h-3c-0.265 0-0.52 0.105-0.707 0.293s-0.293 0.442-0.293 0.707c0 0.265 0.105 0.52 0.293 0.707s0.442 0.293 0.707 0.293h3v7.95c-2.819-0.257-5.43-1.592-7.291-3.725s-2.827-4.902-2.698-7.73c0.129-2.828 1.343-5.497 3.389-7.453s4.768-3.047 7.599-3.047 5.552 1.091 7.599 3.047c2.047 1.956 3.261 4.625 3.389 7.453s-0.838 5.596-2.698 7.73-4.472 3.468-7.291 3.725z"></path>
</symbol>
<symbol id="icon-instagram" viewBox="0 0 32 32">
<path fill="none" stroke="#ff9f0e" style="stroke: var(--color1, #ff9f0e)" stroke-linejoin="round" stroke-linecap="round" stroke-miterlimit="4" stroke-width="2.1" d="M16 21.333c1.414 0 2.771-0.562 3.771-1.562s1.562-2.357 1.562-3.771c0-1.414-0.562-2.771-1.562-3.771s-2.357-1.562-3.771-1.562-2.771 0.562-3.771 1.562c-1 1-1.562 2.357-1.562 3.771s0.562 2.771 1.562 3.771c1 1 2.357 1.562 3.771 1.562z"></path>
<path fill="none" stroke="#ff9f0e" style="stroke: var(--color1, #ff9f0e)" stroke-linejoin="miter" stroke-linecap="butt" stroke-miterlimit="4" stroke-width="2.1" d="M4 21.333v-10.667c0-1.768 0.702-3.464 1.953-4.714s2.946-1.953 4.714-1.953h10.667c1.768 0 3.464 0.702 4.714 1.953s1.953 2.946 1.953 4.714v10.667c0 1.768-0.702 3.464-1.953 4.714s-2.946 1.953-4.714 1.953h-10.667c-1.768 0-3.464-0.702-4.714-1.953s-1.953-2.946-1.953-4.714z"></path>
<path fill="none" stroke="#ff9f0e" style="stroke: var(--color1, #ff9f0e)" stroke-linejoin="round" stroke-linecap="round" stroke-miterlimit="4" stroke-width="2.1" d="M23.333 8.681l0.014-0.015"></path>
</symbol>
</defs>
</svg>
