<svg xmlns="http://www.w3.org/2000/svg" aria-hidden="true" overflow="hidden" style="position:absolute;width:0;height:0"><defs><symbol id="icon-talk-video-bg" viewBox="0 0 42 32"><path d="M.098 13.567S-1.829 5.72 11.421.951s38.908 9.434 27.705 19.715C27.923 30.947 21.78 34.869 11.421 29.782S.098 13.568.098 13.568z"/></symbol><symbol id="icon-talk-video-play" viewBox="0 0 32 32"><path d="M22.809 15.271c-.019.197-.138.412-.414.631l-8.109 6.434c-.577.458-1.947.565-1.947-.513V9.917c0-.975 1.47-1.215 2.058-.818l8.109 5.472c.31.209.377.459.302.7zM32 18.654C31.143 39.195-3.471 34.94.285 13.317 1.861 4.244 9.395-.528 17.673.047c9.318.647 14.158 9.123 14.326 18.471 0 .024-.015.043-.018.066.003.025.02.042.019.07zm-1.737.266c-.141-6.617-2.487-13.763-8.542-16.608-8.024-3.77-17.479.676-19.518 9.838-1.824 8.194 2.232 15.459 9.654 18.087 7.911 2.801 17.973-1.607 18.406-11.318z"/></symbol><symbol id="icon-basket" viewBox="0 0 32 32"><path d="M1.5 12.8h29v-2.133h-29V12.8zm28.367-.634v.937H32v-.937h-2.133zm-3.444 17.701H5.576V32h20.847v-2.133zM2.133 13.103v-.937H0v.937h2.133zm4.045 17.135a38.317 38.317 0 0 1-4.045-17.135H0a40.43 40.43 0 0 0 4.271 18.091l1.907-.956zm-.601-.371c.256 0 .489.145.602.371l-1.907.956A1.46 1.46 0 0 0 5.577 32v-2.133zm20.245.371a.668.668 0 0 1 .602-.371V32c.555 0 1.058-.312 1.306-.806l-1.907-.956zm4.045-17.135a38.346 38.346 0 0 1-4.045 17.135l1.907.956A40.447 40.447 0 0 0 32 13.103h-2.133zm.633-.303a.634.634 0 0 1-.634-.634h2.133a1.499 1.499 0 0 0-1.499-1.499V12.8zm-29-2.133a1.499 1.499 0 0 0-1.499 1.499h2.133a.634.634 0 0 1-.634.634v-2.133zm6.882 1.615 6.4-10.667L12.95.518l-6.4 10.667 1.832 1.096zm8.836-10.667 6.4 10.667 1.83-1.096-6.4-10.667-1.83 1.097zm-6.551 19.718h10.667V19.2H10.667v2.133z"/></symbol><symbol id="icon-instagram" viewBox="0 0 32 32"><path stroke-linecap="round" stroke-linejoin="round" stroke-width="2.1" d="M16 21.333a5.332 5.332 0 1 0 0-10.665 5.332 5.332 0 0 0 0 10.665z"/><path stroke-width="2.1" d="M4 21.333V10.666a6.67 6.67 0 0 1 6.667-6.667h10.667a6.67 6.67 0 0 1 6.667 6.667v10.667A6.67 6.67 0 0 1 21.334 28H10.667A6.67 6.67 0 0 1 4 21.333z"/><path stroke-linecap="round" stroke-linejoin="round" stroke-width="2.1" d="m23.333 8.681.014-.015"/></symbol><symbol id="icon-facebook" viewBox="0 0 32 32"><path d="M29 16c0-2.571-.762-5.085-2.191-7.222S23.35 4.974 20.975 3.99A13.004 13.004 0 0 0 6.808 6.808a13.002 13.002 0 0 0 1.97 20.001A13.003 13.003 0 0 0 16 29a13.012 13.012 0 0 0 13-13zM17 26.95V19h3a.997.997 0 0 0 1-1 .997.997 0 0 0-1-1h-3v-3a2 2 0 0 1 2-2h2a.997.997 0 0 0 1-1 .997.997 0 0 0-1-1h-2a4.014 4.014 0 0 0-4 4v3h-3a.997.997 0 0 0-1 1 .997.997 0 0 0 1 1h3v7.95a11.003 11.003 0 0 1-9.989-11.455 10.996 10.996 0 0 1 18.587-7.453c2.047 1.956 3.261 4.625 3.389 7.453s-.838 5.596-2.698 7.73-4.472 3.468-7.291 3.725z"/></symbol><symbol id="icon-decor-arrow" viewBox="0 0 32 32"><path d="M6.488 23.1c.995-6.532 6.3-11.799 11.828-11.791.032.167.182.321.129.483-.891 2.748.356 4.903 2.282 6.792 1.482 1.492 3.146 2.707 5.191 3.327.586.159 1.084.383 1.72.422 2.328.183 3.658-1.153 3.541-3.427-.077-1.529-.875-2.742-1.824-3.913-1.619-2.036-3.734-3.598-6.221-4.657-.498-.195-.995-.447-1.7-.738 2.414-2.613 5.7-3.167 8.826-4.213-.551-.034-1.025-.145-1.581-.097-2.876.442-5.66 1.395-7.82 3.324-.628.538-1.181.878-2.113.821-3.604-.179-6.573 1.121-9.103 3.562a18.725 18.725 0 0 0-4.357 6.387c-.25.603-.484 1.199-.925 2.161-1.161-1.884-2.173-3.477-3.179-5.105-.13.033-.196.105-.326.139-.062.326-.335.8-.226 1.095a72.642 72.642 0 0 0 1.646 4.219c.56 1.27 1.273 2.485 1.833 3.755.563 1.229 1.161 1.535 2.026.599 1.501-1.598 2.889-3.238 4.27-4.966.185-.236.087-.733.068-1.105-.429.056-1.015.008-1.284.238-.945.849-1.706 1.676-2.703 2.686zm13.576-11.842c4.109.952 7.251 3.036 9.109 6.734.376.806.656 1.798-.145 2.367-.534.38-1.527.464-2.242.338-2.729-.579-4.742-2.231-6.398-4.351-1.141-1.512-1.508-3.101-.324-5.089z"/></symbol><symbol id="icon-people" viewBox="0 0 32 32"><path d="M11.384 9.714c0-1.125.446-2.204 1.24-3a4.23 4.23 0 0 1 5.99 0 4.245 4.245 0 0 1-2.995 7.243c-1.123 0-2.2-.447-2.995-1.243s-1.241-1.875-1.241-3zm4.235-6.666c-1.765 0-3.458.702-4.706 1.953a6.674 6.674 0 0 0 0 9.428 6.647 6.647 0 0 0 9.412 0 6.672 6.672 0 0 0 0-9.428 6.65 6.65 0 0 0-4.706-1.953zM5.333 22.442c0-.964.382-1.889 1.063-2.571S8 18.806 8.963 18.806h13.311c.963 0 1.886.383 2.567 1.065s1.063 1.607 1.063 2.571v.274a3.18 3.18 0 0 1-.024.338c-.024.21-.069.494-.157.831a6.759 6.759 0 0 1-1.209 2.445c-1.416 1.821-4.079 3.384-8.895 3.384S8.141 28.15 6.724 26.33a6.76 6.76 0 0 1-1.21-2.445 5.992 5.992 0 0 1-.177-1.088l-.002-.081v-.028l-.001-.01v-.236zm2.421.215v.015c.017.204.051.406.103.604.109.422.33.991.776 1.565.853 1.096 2.728 2.45 6.987 2.45s6.135-1.354 6.987-2.448c.362-.464.625-.997.774-1.566.052-.198.087-.4.104-.604l.001-.015v-.216a1.213 1.213 0 0 0-1.21-1.212H8.964a1.211 1.211 0 0 0-1.21 1.212v.216z"/></symbol><symbol id="icon-email" viewBox="0 0 32 32"><path d="M16 29.333c-1.822 0-3.544-.35-5.167-1.051s-3.039-1.655-4.249-2.867c-1.212-1.211-2.167-2.627-2.867-4.249s-1.051-3.344-1.051-5.167c0-1.845.35-3.572 1.051-5.183s1.655-3.023 2.867-4.233c1.211-1.212 2.627-2.168 4.249-2.868S14.177 2.666 16 2.666c1.844 0 3.572.35 5.183 1.049 1.612.7 3.023 1.656 4.233 2.868s2.167 2.622 2.867 4.233c.701 1.611 1.051 3.338 1.051 5.183v1.933c0 1.311-.45 2.428-1.349 3.349-.901.923-2.006 1.384-3.317 1.384-.8 0-1.544-.178-2.233-.533s-1.256-.822-1.7-1.4a6.634 6.634 0 0 1-4.733 1.933c-1.845 0-3.416-.65-4.716-1.951s-1.951-2.872-1.951-4.716c0-1.845.65-3.417 1.951-4.717s2.872-1.949 4.716-1.949c1.844 0 3.417.65 4.717 1.949s1.949 2.873 1.949 4.717v1.933c0 .645.2 1.15.6 1.516s.867.551 1.4.551c.533 0 1-.184 1.4-.551s.6-.872.6-1.516v-1.933c0-2.911-1.05-5.417-3.151-7.517s-4.605-3.149-7.516-3.149c-2.911 0-5.417 1.05-7.517 3.149s-3.149 4.606-3.149 7.517 1.05 5.416 3.149 7.516c2.1 2.1 4.606 3.151 7.517 3.151h6.667v2.667h-6.667zM16 20c1.111 0 2.055-.389 2.833-1.167S20 17.111 20 16c0-1.111-.389-2.056-1.167-2.833S17.111 12 16 12c-1.111 0-2.056.389-2.833 1.167S12 14.889 12 16s.389 2.055 1.167 2.833S14.889 20 16 20z"/></symbol><symbol id="icon-phone" viewBox="0 0 32 32"><path d="M27.833 29.333c-3.467 0-6.728-.655-9.783-1.967s-5.723-3.105-8-5.383c-2.278-2.278-4.078-4.945-5.4-8S2.666 7.655 2.666 4.166c-.022-.4.111-.75.4-1.051s.644-.449 1.067-.449h5.2c.4 0 .744.15 1.033.449s.433.662.433 1.084c0 .978.067 1.9.2 2.767s.345 1.689.633 2.467c.111.244.133.494.067.749s-.2.495-.4.717l-3.333 3.333c.956 1.956 2.311 3.811 4.067 5.567s3.644 3.155 5.667 4.2l3.333-3.333c.2-.2.433-.333.7-.4s.533-.044.8.067c.822.267 1.672.472 2.549.616s1.784.217 2.717.217c.422 0 .784.156 1.084.467s.449.689.449 1.133v5.1c0 .4-.145.744-.433 1.033s-.644.433-1.067.433zm-7.666-4c1 .378 2.044.678 3.133.9s2.211.367 3.367.433v-2.867c-.689-.044-1.394-.122-2.116-.233s-1.44-.278-2.151-.5l-2.233 2.267zm6.5-9.333c0-2.978-1.033-5.5-3.1-7.567s-4.589-3.1-7.567-3.1V2.666c1.845 0 3.578.35 5.2 1.049s3.033 1.651 4.233 2.851 2.15 2.611 2.849 4.233c.7 1.622 1.051 3.355 1.051 5.2h-2.667zm-5.334 0c0-1.467-.522-2.722-1.567-3.767s-2.3-1.567-3.767-1.567V7.999c2.222 0 4.111.778 5.667 2.333s2.333 3.444 2.333 5.667h-2.667zM6.667 11.767l2.2-2.233c-.178-.644-.328-1.322-.451-2.033s-.205-1.433-.249-2.167h-2.8c.044 1.067.178 2.133.4 3.2s.522 2.145.9 3.233z"/></symbol><symbol id="icon-dog" viewBox="0 0 32 32"><path d="M6.467 29.333v-12.8l-.367-.367c-.244-.244-.433-.533-.567-.867s-.2-.678-.2-1.033a2.637 2.637 0 0 1 .767-1.867l4.367-4.4H15.8l5.333-5.333 2.733 2.733c.889.889 1.578 1.894 2.067 3.016s.733 2.317.733 3.584-.244 2.461-.733 3.584-1.178 2.127-2.067 3.016l-2.733 2.733v8H6.466zm2.666-2.666h9.333v-6.433l3.5-3.5c.645-.644 1.145-1.367 1.5-2.167s.533-1.655.533-2.567c0-.889-.183-1.733-.551-2.533s-.86-1.522-1.483-2.167l-.833-.867-4.233 4.233h-5.333l-.767.767 2.233 2.233c.622.622 1.106 1.339 1.451 2.149s.516 1.662.516 2.551a6.614 6.614 0 0 1-1.967 4.734l-3.9-3.9v7.467z"/></symbol><symbol id="icon-services-bathing" viewBox="0 0 32 32"><path d="M22.772 14.919a3.324 3.324 0 0 0-1.247-1.493c-.399-.257-1.945-.463-1.995.978 0 0-.648.103-.599.566 0 0-.399 1.39 1.496 1.236 0 0 .349 2.625.648 3.192 0 0 .15.515.2 1.03h.798l.05-1.03s.449.309.798 1.03h1.147c-.05-.412-.1-.772-.2-1.03 0 0 1.696 0 2.294-.772 0 0 .499.978 1.097 1.03v.824h.798c.05-.154.05-.309.1-.566 0 0 .299.154.449.566h.698c-.1-.36-.998-3.707-1.297-3.964 0 0 .449-.051.599.515 0 0 .249 1.184.748 1.133 0 0 .349-.772-.249-1.75 0 0-.249-.721-1.546-.618l-3.741-.103a1.534 1.534 0 0 1-1.047-.772zM18.233 10.955a1.062 1.062 0 0 0-.15-1.39.985.985 0 0 0-1.347.154c-.948 1.236-2.644 1.441-3.841.927l-.648 1.853c2.045.824 4.539.412 5.986-1.544zM9.753 7.712c1.35 0 2.444-1.129 2.444-2.522s-1.094-2.523-2.444-2.523S7.309 3.796 7.309 5.19c0 1.393 1.094 2.522 2.444 2.522z"/><path d="m11.2 20.994-2.095-.875 1.247-3.655c-2.793-1.596-3.791-4.118-3.841-4.273-.299-.772.05-1.596.798-1.905s1.546.051 1.846.824c.05.103.648 1.441 2.195 2.523l.948-2.677a.92.92 0 0 0-.15-.875C10.352 8.022 8.257 7.25 5.963 7.97c-.648.206-1.097.721-1.247 1.39L2.721 20.068v.309l.1 4.891-1.097-.257c-.748-.154-1.546.36-1.696 1.133s.349 1.596 1.097 1.75l2.843.618c.449.103.848 0 1.197-.309s.549-.721.499-1.184l-.1-5.148 3.641 1.493v4.479c0 .824.648 1.493 1.447 1.493s1.447-.669 1.447-1.493v-5.457c.05-.618-.349-1.133-.898-1.39z"/><path d="M15.041 15.382c-4.739-.36-6.235-3.912-6.285-4.067-.2-.515-.748-.721-1.247-.515s-.698.772-.499 1.287c.1.206 1.995 4.839 7.931 5.302.549.051.998-.36.998-.927s-.349-1.03-.898-1.081zM23.57 8.69c-.998.206-1.746 1.133-1.746 2.214h4.439a2.258 2.258 0 0 0-1.945-2.265c-1.496-1.699-3.891-1.03-5.786.669.1.103.2.257.299.412 1.347-1.287 3.192-2.162 4.739-1.03zM31.152 20.891H17.136c-.399 0-.748.36-.748.772s.349.772.748.772h.15v1.287c0 2.008 1.596 3.655 3.542 3.655h6.734c1.945 0 3.541-1.647 3.541-3.655v-1.287h.15c.399 0 .748-.36.748-.772-.1-.463-.449-.772-.848-.772zM22.223 11.933l.05-.463c0-.154-.05-.257-.2-.257s-.249.052-.249.206l-.05.463c0 .154.05.257.2.257.1 0 .2-.103.249-.206zM21.625 12.551l-.05.463c0 .154.05.257.2.257s.249-.052.249-.206l.05-.463c0-.154-.05-.257-.2-.257-.1 0-.2.103-.249.206zM23.321 12.139c.15 0 .249-.103.249-.257v-.515c0-.154-.1-.257-.249-.257s-.249.103-.249.257v.515c0 .103.15.257.249.257zM23.021 13.066c0 .154.1.257.249.257s.249-.103.249-.257v-.515c0-.154-.1-.257-.249-.257s-.249.103-.249.257v.515zM24.668 11.161c-.15 0-.249.103-.249.257v.515c0 .154.1.257.249.257s.249-.103.249-.257v-.515c0-.154-.1-.257-.249-.257zM24.518 12.602v.515c0 .154.1.257.249.257s.249-.103.249-.257v-.515c0-.154-.1-.257-.249-.257-.2 0-.299.103-.249.257zM25.964 11.161c-.15 0-.2.154-.2.257l.05.463c0 .103.1.206.249.206s.249-.154.249-.309l-.1-.412c0-.154-.15-.257-.249-.206zM25.915 12.654l.05.463c0 .103.15.206.249.206.15 0 .249-.154.2-.257v-.515c0-.154-.15-.206-.249-.206-.15.051-.249.154-.249.309z"/></symbol><symbol id="icon-services-training" viewBox="0 0 32 32"><path d="m6.231 25.595 1.154-3.878-.42-1.144c-.891-.149-1.626-.597-2.098-1.193l-1.573 5.221L.2 29.822c-.42.696-.157 1.591.577 1.989s1.678.149 2.098-.547l3.251-5.37c.052-.099.105-.199.105-.298zM1.09 14.764c.483.253 1.126.051 1.394-.456L4.897 9.65l.429-.304.215-1.266c.107-.658.429-1.266.858-1.772L3.503 8.08c-.161.101-.268.253-.375.405L.607 13.396c-.268.506-.054 1.114.483 1.367zM10.338 5.408c1.631 0 2.954-1.211 2.954-2.704S11.97 0 10.338 0C8.707 0 7.384 1.211 7.384 2.704s1.322 2.704 2.954 2.704zM28.969 25.591s.052.05.052.1c.418-.249.575-.797.575-.797 1.569.448 1.883-.946 1.883-.946.209-.398-.837-.797-.837-.797-.052-.996-1.255-1.295-1.255-1.295-.575-.498-.418 0-.418 0-.575-.05-.942.149-.942.149-.942-.847-1.517.448-1.517.448-.157 0-.262.05-.418.05a25.023 25.023 0 0 0 2.877 3.088zM30.429 28.782c-.272-.252-2.227-1.362-2.227-1.362.435-.202.489-1.059.489-1.362-1.032-.908-2.119-2.068-3.205-3.379-.543.101-4.129 1.513-7.606.05-1.304-.555-2.445.252-2.445.252-.978 1.059-.543 2.774-.543 2.774l1.358-1.362c.706-.504.978-.403 1.141-.151.109.202.054.454-.109.656-1.304 1.261-.869 2.572-.869 2.572l-1.847 1.513c-.706.706.109 1.261.109 1.261.163-.555 1.467-1.412 1.467-1.412-.054.656.272.807.272.807.924-.252.706-1.11.706-1.11 1.467-.05 1.63-.656 1.63-.656 1.467.252 2.173-.656 2.173-.656.38.656 3.694 1.362 3.694 1.362.217.101 1.467 2.421 1.467 2.421.272.05.543.403.543.403.598.353 1.847-.05 1.847-.05-.109-.454-.761-.454-.761-.454-1.467 0-1.25-2.27-1.25-2.27.054-.303 1.195.252 1.195.252l2.499.857c1.25.605 1.793-.101 1.793-.101.38-.555-1.521-.857-1.521-.857zM18.215 11.014c1.241 2.511 3.885 7.484 7.283 11.521.162-.049.378-.049.593-.098-.054-.049-.108-.098-.162-.197-3.399-3.988-6.043-8.961-7.23-11.423a1.114 1.114 0 0 1-.486.197z"/><path d="M18.48 10.434c.543-.2.869-.748.652-1.247s-.814-.798-1.357-.599l-2.932.948c-3.421-2.944-3.584-3.443-4.941-3.642-1.738-.249-3.367.898-3.638 2.495l-1.303 8.382c-.271 1.597.977 3.093 2.715 3.343h.163l1.412 3.892-2.878 3.892c-.489.649-.326 1.597.434 2.046.706.449 1.738.299 2.226-.399l3.366-4.49c.271-.399.38-.848.217-1.297l-1.792-4.939c.271-.349.489-.798.543-1.247l1.195-7.434 1.357 1.197c.271.249.706.349 1.086.2l3.475-1.098z"/></symbol><symbol id="icon-services-nutrition" viewBox="0 0 32 32"><path d="M22.415 19.13c-.748-.148-1.489.341-1.801 1.188a2.396 2.396 0 0 0-.126.507 8.6 8.6 0 0 0 2.03-1.674l-.103-.02zM23.109 10.926c1.403-1.12 1.801-3.423.888-5.144s-2.791-2.208-4.194-1.088-1.801 3.423-.888 5.144 2.791 2.208 4.194 1.088zM28.673 11.865c-1.311-1.991-3.092-2.014-4.075-1.202s-.911 2.874-.09 4.259l.116.235c.283-1.053.323-1.818.323-1.828.029-.893.62-1.591 1.345-1.591l.051.001c.742.033 1.324.801 1.297 1.712v.003l-.001.015c-.022.51-.164 2.343-1.067 4.522-.082.2-.179.419-.29.651.189.443.371.896.537 1.356l-1.149-.226c-.777 1.277-1.967 2.726-3.738 3.861l5.138 5.216c.314.319.695.475 1.073.475.484 0 .965-.255 1.298-.748.593-.879.493-2.181-.224-2.909l-1.236-1.255.4.079c.124.024.246.03.367.022.29.017.632-.107 1.051-.287 1.166-.498 2.488-1.377 2.144-4.055-.694-3.597-1.482-5.555-3.271-8.306z"/><path d="M26.332 17.84c.97-2.342 1.033-4.28 1.039-4.402.022-.73-.442-1.343-1.037-1.37s-1.093.541-1.117 1.269c-.002.084-.092 1.678-.879 3.475-.796 1.799-2.226 3.82-5.122 5.003-.565.229-.873.976-.686 1.67.149.556.571.908 1.024.908a.905.905 0 0 0 .338-.067c3.541-1.421 5.48-4.147 6.441-6.486zM12.134 24.129c.49.114 1.08.302 1.236.505.42.543.625 1.665 1.169 1.744.38.055.514.045.985-.328.465-.369.023-1.805-.088-2.357-.157-.783.218-1.643.224-1.696a.939.939 0 0 1 1.262-.559c.326.111.135-.629-.376-.999-.608-.439-1.047-.234-1.492.193-.858-.805-2.202-.648-2.966-.297a8.913 8.913 0 0 0-.169 1.744c0 .826.107 1.542.215 2.05zm2.178-1.737c.2-.167.472-.104.609.141s.084.579-.115.746c-.2.167-.472.104-.609-.141s-.085-.579.115-.746zM11.538 20.316a5.234 5.234 0 0 1-.569-.021.566.566 0 0 0-.197-.027l-.012.002c-2.749-.383-3.497-2.933-6.708-.287-.97-.35-2.126-1.101-3.002-2.705-.177-.322-.533-.407-.796-.19-.263.217-.333.654-.155.976.833 1.51 1.863 2.395 2.829 2.913l-.035.097c-.248.457-.442 1.059-.568 1.861-.018.117-.804 6.273.431 6.273s1.574-4.656 2.264-5.253c.097.011 1.929 2.365 3.494 2.069.367-.07.863-.347 1.277-.643l.677 3.324c.076.373.348.626.653.626a.583.583 0 0 0 .101-.009c.344-.063.591-.434.573-.86l-.176-4.139a10.828 10.828 0 0 1-.238-2.246c0-.549.044-1.144.158-1.763zM17.55 28.446h-.17l-.347-1.319h-3.889l-.347 1.319h-.17c-.137 0-.248.136-.248.305s.111.304.248.304h4.923c.137 0 .248-.136.248-.304s-.111-.305-.248-.305z"/></symbol><symbol id="icon-services-grooming" viewBox="0 0 32 32"><path d="M21.1 9.363c-.085-.371-.316-.65-.633-.765-.023-.008-.047-.009-.07-.016.228-1.036.87-4.801-1.234-7.004C17.944.301 16.042-.204 13.512.074a.413.413 0 0 0-.149-.031c-1.987-.064-3.508.484-4.504 1.626-1.953 2.238-1.246 6.013-1.042 6.908-.03.008-.061.01-.09.02-.318.115-.549.394-.633.765-.076.331-.033.712.118 1.075.278.665.841 1.09 1.381 1.09a.99.99 0 0 0 .172-.015c.458 1.357 1.223 2.486 2.487 3.179v1.392h-.656v3.925h7.002v-3.925h-.657V14.7c1.266-.692 2.031-1.824 2.489-3.187.056.01.113.014.17.014.54 0 1.103-.425 1.381-1.089.151-.363.194-.745.118-1.075zm-13.286.857c-.105-.251-.137-.518-.088-.732.039-.169.125-.289.236-.33a.284.284 0 0 1 .098-.016c.063 0 .133.018.205.051.074.599.179 1.18.326 1.731-.247-.005-.594-.269-.776-.705zm9.498 6.464c-.643.629-1.84 1.052-3.215 1.052s-2.573-.424-3.215-1.052h.694c.178 0 .323-.135.323-.301v-1.392c.63.241 1.362.392 2.215.432.839-.04 1.56-.188 2.182-.425v1.385c0 .166.145.301.323.301h.694zm1.984-7.81a12.19 12.19 0 0 1-.327 1.831c-.04.152-.084.299-.13.444-.396 1.263-1.02 2.247-1.984 2.876a4.13 4.13 0 0 1-.454.251c-.633.312-1.384.503-2.289.546-.902-.043-1.653-.23-2.287-.537a4.326 4.326 0 0 1-.483-.267c-.966-.63-1.591-1.612-1.988-2.872a8.912 8.912 0 0 1-.13-.444 12.131 12.131 0 0 1-.327-1.828 22.151 22.151 0 0 1-.122-1.556c.076-.441.186-.807.318-1.107a4.887 4.887 0 0 0 1.133-.334c.08.102.215.167.353.158a7.534 7.534 0 0 0 2.03-.421.354.354 0 0 0 .009.129.404.404 0 0 0 .389.292c.086.003 1.797.022 2.853-1.101a6.848 6.848 0 0 0 3.187 3.328l.278.357c-.009.087-.02.17-.03.256zm1.083 1.346c-.182.435-.527.699-.774.704.146-.552.25-1.132.324-1.731a.5.5 0 0 1 .205-.05c.035 0 .068.005.098.016.152.055.213.23.236.33.049.214.016.481-.089.732zm-7.015.782v-.843c0-.166.145-.301.323-.301s.323.135.323.301v.775h.497c.178 0 .323.135.323.301s-.145.301-.323.301h-.57c-.316 0-.573-.239-.573-.533zm-1.545-1.933c0 .323-.282.585-.629.585s-.629-.262-.629-.585c0-.323.282-.585.629-.585s.629.262.629.585zm5.814 0c0 .323-.282.585-.629.585s-.629-.262-.629-.585c0-.323.282-.585.629-.585s.629.262.629.585zm-1.954 3.785c0 .485-.817.658-1.582.658s-1.582-.173-1.582-.658c0-.166.145-.301.323-.301.144 0 .266.088.308.209.108.06.448.149.951.149s.843-.089.951-.149a.323.323 0 0 1 .308-.209c.178 0 .323.135.323.301zm16.212 9.377a.814.814 0 0 0-.409-.331.723.723 0 0 0-.095-.496.807.807 0 0 0-.409-.33c.027-.165 0-.339-.095-.496s-.243-.267-.409-.33a.717.717 0 0 0-.095-.496.819.819 0 0 0-.502-.363.883.883 0 0 0-.63.073l-.328.173a.948.948 0 0 0-.246-.252v-.329h1.831c.178 0 .323-.135.323-.301s-.145-.301-.323-.301h-1.831v-.301h1.831c.178 0 .323-.135.323-.301s-.145-.301-.323-.301h-1.831v-.301h1.831c.178 0 .323-.135.323-.301s-.145-.301-.323-.301h-1.831v-.301h1.831c.178 0 .323-.135.323-.301s-.145-.301-.323-.301h-1.831l.002-.301h1.829c.178 0 .323-.135.323-.301s-.145-.301-.323-.301h-1.829c-.364 0-.648.308-.648.701v1.448a1.79 1.79 0 0 0-.404-.98c-.59-.728-1.602-.947-2.253-.489-.34.239-.512.615-.519 1.023-.424-.105-.861-.054-1.2.184-.327.23-.519.603-.526 1.023-.006.389.141.789.415 1.127s.648.579 1.052.68c.135.034.27.05.402.05.295 0 .573-.082.799-.241.021-.015.037-.035.057-.051l1.014 1.131-.366.734a1.437 1.437 0 0 0-.076.139l-2.131 1.125-3.636-5.555a1.937 1.937 0 0 0-.314-.36 1.302 1.302 0 0 0-.793-.449 2.176 2.176 0 0 0-.98-.076v4.029a.726.726 0 0 1 .216.101c.119.083.206.2.242.338l1.59 6.197v-2.518l1.211 1.851c.385.588 1.058.914 1.75.914.343 0 .69-.08 1.008-.249l3.88-2.048c.016-.008.028-.02.044-.029.03.002.061.006.091.006.252 0 .508-.059.743-.183l.729-.385.045.05a.454.454 0 0 0 .591.063l.407-.286a.381.381 0 0 0 .148-.409l.317-.168c.193-.102.331-.267.39-.467s.031-.407-.079-.586zm-1.88-1.388.059-.031a.203.203 0 0 1 .139-.016.18.18 0 0 1 .111.08.165.165 0 0 1-.069.233l-.846.447c-.043.022-.092.027-.139.016s-.087-.041-.111-.08a.165.165 0 0 1 .069-.233l.787-.416zm-1.038-.468.008-.016c.006-.012.008-.025.013-.037.006-.014.01-.028.015-.043l.556-.294a.19.19 0 0 1 .139-.016.18.18 0 0 1 .111.08c.031.051.028.11.002.159a.176.176 0 0 1-.071.075l-.846.447a.205.205 0 0 1-.115.018l.187-.373zm-3.7-1.64c-.156.109-.355.082-.46.056-.216-.054-.43-.196-.587-.389s-.244-.423-.241-.632c.002-.101.028-.286.184-.396a.48.48 0 0 1 .279-.081c.253 0 .555.152.767.413.299.369.325.839.058 1.027zm.673-1.541c-.299-.368-.325-.839-.057-1.027a.477.477 0 0 1 .279-.081c.253 0 .555.153.767.414.157.193.245.423.242.631-.002.101-.028.286-.184.396s-.355.082-.459.056a1.14 1.14 0 0 1-.587-.389zm.832 2.416c-.147-.182-.109-.44.087-.577s.473-.101.62.081a.388.388 0 0 1 .08.21.748.748 0 0 0-.287.298l-.07.141a.456.456 0 0 1-.43-.153zm2.541 4.131-.296.156c-.413.219-.942.083-1.177-.301l-.799-1.308a.75.75 0 0 1-.082-.61l.004-.007.896-1.795c.023-.045.085-.075.162-.081a.377.377 0 0 1 .332.144c.007.01.016.019.021.029.027.05.034.1.015.138l-.793 1.584c-.013.025-.015.052-.02.078a.293.293 0 0 0 .177.322c.044.019.09.028.136.028s.09-.012.132-.029v1.428c0 .166.145.301.323.301s.323-.135.323-.301v-1.043l.979 1.092-.333.176zm.591-1.359a.192.192 0 0 1-.25-.064.165.165 0 0 1 .069-.233l.846-.447a.19.19 0 0 1 .139-.016.183.183 0 0 1 .111.08.165.165 0 0 1-.069.233l-.846.447zm1.437.276a.172.172 0 0 1-.086.103l-.845.447a.192.192 0 0 1-.122.018.185.185 0 0 1-.129-.082.165.165 0 0 1 .069-.233l.846-.447a.203.203 0 0 1 .09-.022l.015.002.034.004c.048.012.087.041.111.081s.03.085.017.13zm-10.796 8.703-.18-3.894c-.001-.01-.002-.02-.005-.031l-1.761-6.865a.166.166 0 0 0-.038-.07.293.293 0 0 0-.224-.094H9.851a.293.293 0 0 0-.224.094.166.166 0 0 0-.038.07l-1.546 6.03-.241-.126c-.051-.026-.102-.047-.152-.068l1.52-5.928a.593.593 0 0 1 .242-.338.73.73 0 0 1 .215-.1v-4.014c-.754-.227-1.614-.035-2.17.555L.509 23.948c-.385.409-.565.951-.493 1.49s.389 1.025.87 1.333l3.986 2.555c.124.08.256.14.391.191.163.174.357.323.577.437l1.815.941.011.004-.022.464-.02.431a.166.166 0 0 0 .056.128c.051.05.129.079.211.079h12.414c.083 0 .16-.029.212-.079a.171.171 0 0 0 .056-.128l-.02-.431zM5.103 24.849l2.477-2.625v4.154a2.282 2.282 0 0 0-.244-.076c-.048-.037-.089-.078-.141-.112l-2.091-1.341zm4.85 3.561a.116.116 0 0 1-.15.04l-1.469-.761a.327.327 0 0 0-.264-.008c-.079.028-.149.08-.191.149s-.053.152-.029.229a.305.305 0 0 0 .154.181l.001.001 1.759.912c.034.018.047.046.052.061s.01.046-.009.078-.049.043-.066.048-.05.009-.084-.009l-1.76-.913a.306.306 0 0 0-.114-.03.375.375 0 0 0-.203.049l-.018.009a.359.359 0 0 0-.12.112.284.284 0 0 0-.029.229c.02.066.067.119.126.159.01.007.017.016.028.022l1.469.761c.034.018.047.046.052.062s.01.045-.009.078c-.019.032-.049.044-.066.048s-.049.009-.084-.009l-1.633-.846c-.102-.053-.259-.032-.359.025a.295.295 0 0 0-.152.262.294.294 0 0 0 .053.154.307.307 0 0 0 .113.101l1.125.583c.034.018.047.046.052.061s.01.046-.009.078a.115.115 0 0 1-.15.04l-1.815-.941a1.45 1.45 0 0 1-.667-.702c-.175-.402-.155-.841.053-1.175.253-.406.74-.707 1.282-.707.22 0 .448.051.674.162l.02.009 2.395 1.256c.034.018.047.047.052.062s.01.046-.009.077zm7.99-1.491c-.009.528-.557.759-.836.351l-.281-.41a2.379 2.379 0 0 1-.336.679c.001.032.005.064.005.097 0 1.363-1.073 2.468-2.398 2.468s-2.398-1.105-2.398-2.468c0-.033.003-.064.005-.097a2.405 2.405 0 0 1-.336-.679l-.281.41c-.279.408-.827.177-.837-.351a14.804 14.804 0 0 0-.031-.754c-.061-.881 1.229-1.295 1.81-1.436.517-.346 1.251-.501 2.068-.501s1.551.156 2.068.501c.581.141 1.871.555 1.81 1.436-.018.251-.027.507-.032.754zm-4.829 1.83c0-.371.44-.672.983-.672s.983.301.983.672c0 .371-.44.672-.983.672s-.983-.301-.983-.672z"/></symbol><symbol id="icon-decor-more-services" viewBox="0 0 32 32"><path d="M31.771 16.552a.78.78 0 0 0 0-1.104l-4.967-4.967a.78.78 0 1 0-1.104 1.104L30.115 16 25.7 20.415a.78.78 0 1 0 1.104 1.104l4.967-4.967zM0 16.78h31.22v-1.561H0v1.561z"/></symbol><symbol id="icon-decor-food" viewBox="0 0 32 32"><path d="M30.247 14.222c-.035-1.328-1.337-2.649-3.945-3.556.178-.364 0-.484 0-.889 0-1.57-1.365-3.111-3.069-3.111-.384 0-.519.315-.877.444-.573-.646-1.623-.889-2.63-.889-.456 0-.903-.154-1.315 0-.717-.594-1.61-.889-2.63-.889-1.376 0-2.823.807-3.507 1.778-1.617-.177-2.955.175-3.507 1.333-1.356.024-2.46 1.024-2.63 2.222-2.826.919-4.347 2.168-4.384 3.556L0 20.888v.444c0 3.099 7.247 5.333 16.219 5.333S32 24.43 32 21.332l-1.753-7.111zM8.767 9.333c-.023-.001.023 0 0 0h.438v-.444c.347-.921 1.374-1.333 2.63-1.333.177 0 .255-.027.438 0h.438c.554-.896 1.814-1.778 3.069-1.778.948 0 1.569.316 2.192.889l.438.444v-.444c.385-.168.872 0 1.315 0 .919 0 1.745.283 2.192.889h.438c.347-.151.498 0 .877 0 1.393 0 2.63.966 2.63 2.222 0 .412-.206.537-.438.889v.444c-.018.027.019-.026 0 0v.444h.438c1.101.152 1.753.753 1.753 1.333 0 .349-.211.287-.438.444-.036.025.032-.019 0 0l-.877.444.877.444c.494.23.438.495.438.889 0 .588-1.118 1.333-2.192 1.333-.49.168-.798.308-1.315.444-2.198.579-4.806.889-7.452.889-4.527 0-8.323-.999-9.644-1.333-.304-.077-.43.003-.438 0-1.203 0-2.192-1.144-2.192-2.222s.989-1.778 2.192-1.778c-.073-.007.075 0 0 0h.438v-.444c-.141-.26-.438-.605-.438-.889-.001.017 0-.017 0 0 .112-.959 1.078-1.778 2.192-1.778zm-2.63 2.223c-.002-.012.001.012 0 0-.003-.019.003.019 0 0 .016.098-.029-.096 0 0 0 .001 0-.001 0 0-1.429.086-2.63 1.33-2.63 2.667 0 1.379 1.574 2.648 3.068 2.667.068.019.203-.06.438 0 1.35.341 5.06 1.333 9.644 1.333-.001 0 .001 0 0 0 3.311 0 6.149-.442 8.767-1.333 1.296-.018 3.069-.773 3.069-1.778 0-.124.032-.327 0-.444-.095-.353-.533-.641-.877-.889.341-.307.438-.503.438-.889 0-.028.002-.417 0-.444-.001-.023.003.022 0 0-.004-.027.005.026 0 0-.005-.025.007.025 0 0-.001-.006.001.006 0 0 1.053.63 1.753 1.079 1.753 1.778 0 2.12-5.814 4.444-14.027 4.444S2.191 16.343 2.191 14.224c0-1.098 1.483-1.838 3.945-2.667zm9.644 14.666c-8.332 0-15.282-2.216-15.342-4.889l1.753-5.778c1.348 2.261 6.611 4 13.589 4s12.68-1.738 14.027-4l1.753 5.778c-.06 2.674-7.449 4.889-15.781 4.889z"/><path d="M20.603 21.333c0-.753-.587-1.333-1.315-1.333-.705 0-1.281.613-1.315 1.333h-4.384c-.035-.721-.61-1.333-1.315-1.333-.727 0-1.315.58-1.315 1.333 0 .439.126.639.438.889-.312.25-.438.894-.438 1.333 0 .753.588 1.333 1.315 1.333.705 0 1.281-.613 1.315-1.333h4.384c.035.721.611 1.333 1.315 1.333.728 0 1.315-.58 1.315-1.333 0-.439-.127-1.084-.438-1.333.312-.25.438-.449.438-.889zm-.439 2.223c0 .439-.453.889-.877.889s-.877-.45-.877-.889c-.01.053 0-.053 0 0v-.444h-5.26v.444c0-.053.01.053 0 0 0 .439-.453.889-.877.889s-.877-.45-.877-.889c0-.438.453-.889.877-.889v-.444c-.424 0-.877-.451-.877-.889s.453-.889.877-.889.877.45.877.889c0 .053.01-.053 0 0v.444h5.26v-.444c-.01-.053 0 .053 0 0 0-.439.453-.889.877-.889s.877.45.877.889c0 .438-.453.889-.877.889v.444c.424 0 .877.451.877.889z"/></symbol><symbol id="icon-decor-paw" viewBox="0 0 32 32"><path d="M15.876 16.009c-2.585.573-2.818 3.013-4.86 5.619-2.93 3.812-1.884 6.472.314 6.646s3.613-2.507 5.962-2.815c2.292-.452 4.453 1.578 6.446.581 2.021-.924 2.231-3.856-1.671-6.416-2.616-1.672-3.594-3.942-6.191-3.615zM8.691 15.092c1.694 1.855 2.243 4.274 1.238 5.398-1.074 1.153-3.308.582-5.001-1.273s-2.243-4.274-1.238-5.398c1.074-1.153 3.308-.582 5.001 1.273zM21.661 12.96c-1.103 2.252-.836 4.617.523 5.333s3.38-.467 4.483-2.719c1.103-2.252.836-4.617-.523-5.333-1.43-.686-3.451.496-4.483 2.719zM13.934 9.536c.899 2.499.301 5.011-1.236 5.563s-3.508-1.065-4.407-3.564-.301-5.011 1.236-5.563 3.508 1.065 4.407 3.564zM15.419 8.981c-.06 2.521 1.2 4.493 2.739 4.497 1.608-.025 2.926-2.022 3.013-4.474.06-2.521-1.2-4.493-2.739-4.497-1.566-.073-2.953 1.953-3.013 4.474z"/></symbol><symbol id="icon-arrow-forward" viewBox="0 0 32 32"><path d="M9.965 4.675c-.311.311-.467.679-.467 1.105s.156.793.467 1.104L19.081 16l-9.147 9.147c-.29.29-.436.653-.436 1.089s.156.809.467 1.12c.311.311.679.467 1.105.467s.793-.156 1.104-.467l10.453-10.485c.124-.124.213-.259.265-.404s.077-.301.077-.467-.026-.322-.077-.467a1.097 1.097 0 0 0-.265-.404L12.143 4.645c-.29-.29-.648-.436-1.073-.436s-.794.156-1.105.467z"/></symbol><symbol id="icon-rating-star" viewBox="0 0 32 32"><path d="m16 1 3.592 11.056h11.625l-9.405 6.833 3.592 11.056-9.405-6.833-9.405 6.833 3.592-11.056-9.405-6.833h11.625L15.998 1z"/></symbol><symbol id="icon-rating-bone" viewBox="0 0 32 32"><path d="M31.794 15.015c.365-.828.166-2.046 0-2.954-.129-.772-.449-1.409-.929-1.97s-1.189-.825-1.858-.985c-.531-.137-1.329-.147-1.858 0s-.511.584-.929.985c-1.043.95-2.387 1.018-3.716.985H9.497c-1.33.033-2.674-.034-3.716-.985-.418-.401-.4-.838-.929-.985s-1.327-.137-1.858 0c-.669.16-1.379.425-1.858.985s-.8 1.197-.929 1.97c-.166.908-.365 2.127 0 2.954.132.298.929.65.929.985s-.797.687-.929.985c-.364.828-.165 2.046 0 2.954.129.773.45 1.409.929 1.97s1.189.823 1.858.985c.531.137 1.329.147 1.858 0s.511-.584.929-.985c1.042-.952 2.386-1.016 3.716-.985h13.007c1.33-.031 2.674.033 3.716.985.418.401.4.838.929.985s1.327.137 1.858 0c.669-.162 1.379-.424 1.858-.985s.8-1.197.929-1.97c.165-.908.364-2.127 0-2.954-.132-.298-.929-.65-.929-.985s.797-.687.929-.985z"/></symbol><symbol id="icon-check-mark" viewBox="0 0 32 32"><path d="M1.092 15.681c4.459 4.825 8.783 9.169 12.939 14.663 4.519-8.988 9.144-18.006 16.775-27.773l-2.056-.942c-6.444 6.834-11.45 13.303-15.8 20.99-3.025-2.725-7.914-6.581-10.899-8.563l-.959 1.625z"/></symbol><symbol id="icon-arrow" viewBox="0 0 32 32"><path d="M.551 17.331a1.882 1.882 0 0 1 0-2.662L12.53 2.69a1.882 1.882 0 0 1 2.662 2.662L4.544 16l10.648 10.648a1.882 1.882 0 0 1-2.662 2.662L.551 17.331zM32 17.882H1.882v-3.765H32v3.765z"/></symbol><symbol id="icon-talk-bg" viewBox="0 0 32 32"><path d="M2.869 8.302c2.253-3.024 4.926-5.603 6.888-6.821s5.334-1.959 7.599-1.11 5.526 5.868 6.162 6.191c.636.323 3.971 3.881 5.622 5.575s2.037 7.073-.207 10.469-6.601.983-14.539 6.441c-7.938 5.457-11.369 2.91-10.819-4.564S-.804 13.233 2.87 8.301z"/></symbol><symbol id="icon-hero-bg" viewBox="0 0 32 32"><path d="M26.45 10.191C17.37 11.158-3.634 4.947-2.1 7.76S-.191 9.224-.191 9.224l-2.543 12.363s6.601 2.8 6.646.439 12.533 2.486 19.327 2.929c6.794.443 10.237-5.479 8.156-5.04s4.134-10.69-4.946-9.723z"/></symbol><symbol id="icon-contact-bg" viewBox="0 0 32 32"><path d="M6.33 9.931c-9.278-2.132-10.294-.888-9.642 0-3.01 6.251-8.169 17.728-4.721 13.633 4.31-5.118 18.262 2.354 26.782 1.643 6.816-.568 13.985-3.382 16.718-4.718V6.744l-9.953 1.954c-3.244.921-9.906 3.364-19.184 1.232z"/></symbol><symbol id="icon-services-bg" viewBox="0 0 32 32"><path d="M7.373 10.75c-5.055-.698-9.837.135-11.595.644l-.511 9.732c3.694-.595 14.034-.995 26.056.244 12.44 1.282 9.241-.733 16.349-1.4.404-1.673 4.357-6.392-1.044-8.577s-2.678-.682-8.908-.644c-4.675.291-15.292.698-20.347 0z"/></symbol></defs></svg>